M48
; DRILL file KiCad 10.0.1 date 2026-07-26T15:06:42
; FORMAT={-:-/ absolute / metric / decimal}
; #@! TF.CreationDate,2026-07-26T15:06:42+01:00
; #@! TF.GenerationSoftware,Kicad,Pcbnew,10.0.1
; #@! TF.FileFunction,Plated,1,4,PTH
FMAT,2
METRIC
; #@! TA.AperFunction,Plated,PTH,ViaDrill
T1C0.300
; #@! TA.AperFunction,Plated,PTH,ComponentDrill
T2C0.300
; #@! TA.AperFunction,Plated,PTH,ComponentDrill
T3C0.600
; #@! TA.AperFunction,Plated,PTH,ComponentDrill
T4C1.000
; #@! TA.AperFunction,Plated,PTH,ComponentDrill
T5C1.300
%
G90
G05
T1
X177.88Y-42.4
X177.88Y-43.4
X177.88Y-44.4
X177.88Y-45.4
X178.88Y-42.4
X178.88Y-43.4
X178.88Y-44.4
X178.88Y-45.4
X179.88Y-83.4
X179.88Y-84.4
X180.38Y-109.9
X180.38Y-110.9
X180.88Y-83.4
X180.88Y-84.4
X181.38Y-109.9
X181.38Y-110.9
X182.38Y-109.9
X182.38Y-110.9
X182.88Y-50.9
X182.88Y-51.9
X182.88Y-52.9
X182.88Y-93.9
X183.38Y-42.4
X183.38Y-43.4
X183.38Y-109.9
X183.38Y-110.9
X183.38Y-124.4
X183.38Y-125.4
X183.88Y-50.9
X183.88Y-51.9
X183.88Y-52.9
X184.055Y-99.1
X184.055Y-101.761
X184.055Y-100.961
X184.38Y-42.4
X184.38Y-43.4
X184.38Y-73.4
X184.38Y-74.4
X184.38Y-75.4
X184.38Y-109.9
X184.38Y-110.9
X184.38Y-124.4
X184.38Y-125.4
X184.63Y-90.4
X185.38Y-42.4
X185.38Y-43.4
X185.38Y-80.9
X185.38Y-81.9
X185.38Y-98.9
X185.38Y-99.9
X185.38Y-100.9
X185.38Y-101.9
X185.38Y-109.9
X185.38Y-110.9
X185.38Y-124.4
X185.38Y-125.4
X185.38Y-128.9
X185.38Y-129.9
X185.38Y-130.9
X185.38Y-131.9
X186.38Y-42.4
X186.38Y-43.4
X186.38Y-80.9
X186.38Y-81.9
X186.38Y-98.9
X186.38Y-99.9
X186.38Y-100.9
X186.38Y-101.9
X186.38Y-109.9
X186.38Y-110.9
X186.38Y-124.4
X186.38Y-125.4
X186.38Y-128.9
X186.38Y-129.9
X186.38Y-130.9
X186.38Y-131.9
X186.58Y-48.9
X186.78Y-49.7
X186.98Y-50.5
X187.18Y-51.3
X187.255Y-104.275
X187.38Y-52.1
X187.38Y-109.9
X187.38Y-110.9
X187.38Y-120.4
X187.38Y-121.4
X187.58Y-84.405
X187.58Y-85.505
X187.58Y-86.605
X187.58Y-87.705
X187.58Y-89.905
X187.58Y-91.005
X187.58Y-92.105
X187.705Y-99.1
X187.705Y-101.7
X187.78Y-68.9
X187.88Y-61.9
X187.88Y-62.9
X187.88Y-72.9
X187.893Y-73.887
X188.38Y-109.9
X188.38Y-110.9
X188.38Y-120.4
X188.38Y-121.4
X188.88Y-61.9
X188.88Y-62.9
X188.88Y-84.4
X189.18Y-68.9
X189.38Y-120.4
X189.38Y-121.4
X189.88Y-39.4
X189.88Y-40.4
X189.88Y-41.4
X189.98Y-92.9
X190.38Y-120.4
X190.38Y-121.4
X190.58Y-68.9
X190.68Y-106.9
X190.88Y-35.4
X190.88Y-36.4
X190.88Y-37.4
X190.88Y-38.4
X190.88Y-73.4
X190.88Y-74.4
X190.88Y-76.3
X190.88Y-96.4
X191.18Y-56.5
X191.38Y-66.65
X191.38Y-67.65
X191.38Y-99.9
X191.878Y-76.284
X191.88Y-73.4
X191.88Y-74.4
X191.914Y-94.234
X191.98Y-56.524
X192.38Y-66.65
X192.38Y-67.65
X192.63Y-77.15
X192.78Y-56.5
X192.88Y-73.4
X192.88Y-74.4
X193.328Y-83.848
X193.38Y-102.4
X193.38Y-103.487
X193.38Y-106.9
X193.88Y-35.4
X193.88Y-36.4
X193.88Y-37.4
X193.88Y-38.4
X194.292Y-111.82
X194.33Y-84.284
X194.38Y-65.65
X194.38Y-94.9
X194.38Y-102.4
X194.38Y-103.4
X194.78Y-95.7
X195.13Y-88.15
X195.13Y-89.65
X195.158Y-73.05
X195.18Y-75.3
X195.18Y-76.1
X195.18Y-96.5
X195.28Y-110.9
X195.28Y-111.82
X195.456Y-86.824
X195.58Y-97.3
X195.68Y-74.0
X195.831Y-120.851
X195.881Y-108.3
X195.898Y-91.665
X196.38Y-75.65
X196.38Y-86.9
X196.38Y-90.9
X196.38Y-127.4
X196.48Y-110.5
X196.58Y-73.1
X196.63Y-120.9
X196.88Y-39.4
X196.88Y-40.4
X196.88Y-41.4
X197.13Y-124.9
X197.476Y-98.354
X197.48Y-120.9
X197.63Y-85.65
X197.63Y-92.15
X197.88Y-68.9
X198.03Y-127.15
X198.28Y-97.55
X198.38Y-73.9
X199.13Y-85.65
X199.13Y-92.15
X199.13Y-96.7
X199.23Y-127.15
X199.28Y-120.9
X199.402Y-93.034
X199.58Y-75.1
X199.58Y-78.9
X199.63Y-124.9
X199.878Y-96.25
X200.13Y-120.9
X200.18Y-76.7
X200.18Y-79.7
X200.38Y-86.9
X200.38Y-90.9
X200.38Y-127.4
X200.78Y-80.5
X200.88Y-72.9
X200.88Y-75.4
X200.88Y-110.9
X200.88Y-111.9
X200.954Y-120.876
X201.154Y-86.409
X201.38Y-54.65
X201.38Y-58.65
X201.38Y-62.65
X201.38Y-66.65
X201.38Y-67.65
X201.38Y-81.1
X201.63Y-88.15
X201.63Y-89.65
X201.874Y-72.9
X201.88Y-110.9
X201.88Y-111.9
X201.98Y-73.9
X201.98Y-74.9
X201.98Y-82.1
X202.19Y-83.11
X202.38Y-66.65
X202.38Y-67.65
X202.58Y-51.725
X202.58Y-55.725
X202.58Y-59.725
X202.58Y-63.725
X202.78Y-94.5
X202.88Y-35.4
X202.88Y-36.4
X202.88Y-37.4
X202.88Y-38.4
X202.88Y-39.4
X202.88Y-40.4
X202.88Y-41.4
X202.88Y-68.9
X202.88Y-110.9
X202.88Y-111.9
X202.88Y-112.9
X202.88Y-113.9
X203.18Y-95.335
X203.38Y-66.65
X203.38Y-67.65
X203.38Y-99.9
X203.38Y-106.4
X203.38Y-107.4
X203.88Y-45.4
X203.88Y-46.4
X203.88Y-47.4
X203.88Y-48.4
X203.88Y-110.9
X203.88Y-111.9
X203.88Y-112.9
X203.88Y-113.9
X204.303Y-86.371
X204.38Y-66.65
X204.38Y-67.65
X204.38Y-73.9
X204.38Y-100.9
X204.38Y-106.4
X204.38Y-107.4
X204.575Y-68.9
X204.88Y-45.4
X204.88Y-46.4
X204.88Y-47.4
X204.88Y-48.4
X204.88Y-112.9
X204.88Y-113.9
X205.098Y-86.142
X205.38Y-73.9
X205.38Y-78.4
X205.38Y-91.5
X205.871Y-85.903
X205.88Y-35.4
X205.88Y-36.4
X205.88Y-37.4
X205.88Y-38.4
X205.88Y-112.9
X205.88Y-113.9
X206.38Y-120.4
X206.38Y-121.4
X206.487Y-98.207
X206.63Y-85.65
X206.78Y-91.5
X207.38Y-120.4
X207.38Y-121.4
X207.537Y-97.157
X208.38Y-120.4
X208.38Y-121.4
X208.98Y-82.3
X209.325Y-81.5
X209.38Y-119.4
X209.38Y-120.4
X209.38Y-121.4
X209.505Y-87.9
X209.505Y-102.55
X209.725Y-80.7
X210.125Y-79.9
X210.38Y-39.4
X210.38Y-40.4
X210.38Y-41.4
X210.38Y-47.4
X210.38Y-48.4
X210.38Y-94.9
X210.38Y-95.9
X210.38Y-96.9
X210.38Y-97.9
X210.38Y-130.9
X210.38Y-131.9
X210.525Y-79.1
X210.78Y-90.7
X210.925Y-78.3
X211.38Y-47.4
X211.38Y-48.4
X211.38Y-90.1
X211.38Y-94.9
X211.38Y-95.9
X211.38Y-96.9
X211.38Y-97.9
X211.38Y-130.9
X211.38Y-131.9
X212.38Y-96.9
X212.38Y-97.9
X212.38Y-98.9
X212.38Y-99.9
X213.38Y-96.9
X213.38Y-97.9
X213.38Y-98.9
X213.38Y-99.9
X213.475Y-86.4
X214.38Y-82.9
X214.38Y-83.9
X214.651Y-48.745
X214.651Y-58.905
X214.651Y-69.065
X214.651Y-79.225
X214.745Y-91.4
X214.755Y-86.4
X215.38Y-82.9
X215.38Y-83.9
X215.955Y-46.229
X215.955Y-56.389
X215.955Y-66.549
X215.955Y-76.709
X216.015Y-86.4
X216.015Y-90.7
X216.38Y-82.9
X216.38Y-83.9
X217.28Y-86.4
X217.285Y-90.1
X217.38Y-82.9
X217.38Y-83.9
X217.88Y-44.4
X217.88Y-45.4
X217.88Y-46.4
X217.88Y-47.4
X217.88Y-48.4
X217.88Y-49.4
X217.88Y-50.4
X217.88Y-54.4
X217.88Y-55.4
X217.88Y-56.4
X217.88Y-57.4
X217.88Y-58.4
X217.88Y-59.4
X217.88Y-60.4
X217.88Y-64.4
X217.88Y-65.4
X217.88Y-66.4
X217.88Y-67.4
X217.88Y-68.4
X217.88Y-69.4
X217.88Y-70.4
X217.88Y-74.4
X217.88Y-75.4
X217.88Y-76.4
X217.88Y-77.4
X217.88Y-78.4
X217.88Y-79.4
X217.88Y-80.4
X218.88Y-44.4
X218.88Y-45.4
X218.88Y-46.4
X218.88Y-47.4
X218.88Y-48.4
X218.88Y-49.4
X218.88Y-50.4
X218.88Y-54.4
X218.88Y-55.4
X218.88Y-56.4
X218.88Y-57.4
X218.88Y-58.4
X218.88Y-59.4
X218.88Y-60.4
X218.88Y-64.4
X218.88Y-65.4
X218.88Y-66.4
X218.88Y-67.4
X218.88Y-68.4
X218.88Y-69.4
X218.88Y-70.4
X218.88Y-74.4
X218.88Y-75.4
X218.88Y-76.4
X218.88Y-77.4
X218.88Y-78.4
X218.88Y-79.4
X218.88Y-80.4
T2
X196.329Y-88.9
X197.355Y-87.875
X197.355Y-89.925
X198.38Y-86.849
X198.38Y-88.9
X198.38Y-90.951
X199.405Y-87.875
X199.405Y-89.925
X200.431Y-88.9
T4
X188.22Y-125.73
X188.22Y-128.27
X188.22Y-130.81
X190.76Y-125.73
X190.76Y-128.27
X190.76Y-130.81
X206.0Y-125.73
X206.0Y-128.27
X206.0Y-130.81
X208.54Y-125.73
X208.54Y-128.27
X208.54Y-130.81
T5
X180.84Y-44.45
X180.84Y-49.53
X180.84Y-54.61
X180.84Y-59.69
X180.84Y-64.77
X180.84Y-69.85
X180.84Y-74.93
X180.84Y-80.01
X180.84Y-97.79
X180.84Y-102.87
X180.84Y-107.95
X180.84Y-113.03
X180.84Y-118.11
X180.84Y-123.19
X215.9Y-44.45
X215.9Y-49.53
X215.9Y-54.61
X215.9Y-59.69
X215.9Y-64.77
X215.9Y-69.85
X215.9Y-74.93
X215.9Y-80.01
X215.9Y-97.79
X215.9Y-102.87
X215.9Y-107.95
X215.9Y-113.03
X215.9Y-118.11
X215.9Y-123.19
T3
X194.06Y-126.02G85X194.06Y-127.12
G05
X194.06Y-130.35G85X194.06Y-131.15
G05
X202.7Y-126.02G85X202.7Y-127.12
G05
X202.7Y-130.35G85X202.7Y-131.15
G05
M30
