M48
; DRILL file KiCad 10.0.1 date 2026-07-21T21:46:29
; FORMAT={-:-/ absolute / metric / decimal}
; #@! TF.CreationDate,2026-07-21T21:46:29+01:00
; #@! TF.GenerationSoftware,Kicad,Pcbnew,10.0.1
; #@! TF.FileFunction,Plated,1,4,PTH
FMAT,2
METRIC
; #@! TA.AperFunction,Plated,PTH,ViaDrill
T1C0.300
; #@! TA.AperFunction,Plated,PTH,ComponentDrill
T2C0.300
; #@! TA.AperFunction,Plated,PTH,ComponentDrill
T3C0.600
; #@! TA.AperFunction,Plated,PTH,ComponentDrill
T4C1.000
; #@! TA.AperFunction,Plated,PTH,ComponentDrill
T5C1.300
%
G90
G05
T1
X177.88Y-42.9
X177.88Y-43.9
X177.88Y-44.9
X178.88Y-42.9
X178.88Y-43.9
X178.88Y-44.9
X179.88Y-83.4
X179.88Y-84.4
X179.88Y-85.4
X179.88Y-109.9
X179.88Y-110.9
X180.88Y-83.4
X180.88Y-84.4
X180.88Y-85.4
X180.88Y-109.9
X180.88Y-110.9
X181.88Y-109.9
X181.88Y-110.9
X182.88Y-109.9
X182.88Y-110.9
X183.88Y-41.4
X183.88Y-42.4
X183.88Y-109.9
X183.88Y-110.9
X184.055Y-99.1
X184.055Y-101.761
X184.055Y-100.961
X184.63Y-73.9
X184.63Y-74.9
X184.63Y-75.9
X184.63Y-80.9
X184.63Y-81.9
X184.63Y-90.4
X184.88Y-41.4
X184.88Y-42.4
X184.88Y-98.9
X184.88Y-99.9
X184.88Y-100.9
X184.88Y-101.9
X184.88Y-109.9
X184.88Y-110.9
X185.63Y-80.9
X185.63Y-81.9
X185.88Y-41.4
X185.88Y-42.4
X185.88Y-98.9
X185.88Y-99.9
X185.88Y-100.9
X185.88Y-101.9
X185.88Y-109.9
X185.88Y-110.9
X186.58Y-48.9
X186.63Y-80.9
X186.63Y-81.9
X186.78Y-49.7
X186.88Y-98.9
X186.88Y-99.9
X186.88Y-100.9
X186.88Y-101.9
X186.88Y-109.9
X186.88Y-110.9
X186.98Y-50.5
X187.18Y-51.3
X187.255Y-104.275
X187.38Y-52.1
X187.58Y-84.405
X187.58Y-85.505
X187.58Y-86.605
X187.58Y-87.705
X187.58Y-89.905
X187.58Y-91.005
X187.58Y-92.105
X187.705Y-99.1
X187.705Y-101.7
X187.78Y-68.9
X187.88Y-109.9
X187.88Y-110.9
X188.18Y-72.9
X188.18Y-74.099
X188.88Y-39.9
X189.18Y-68.9
X189.38Y-61.9
X189.38Y-62.9
X189.38Y-84.7
X189.88Y-39.9
X189.88Y-40.9
X189.88Y-41.9
X189.98Y-92.9
X190.18Y-84.1
X190.58Y-68.9
X190.88Y-34.9
X190.88Y-35.9
X190.88Y-36.9
X190.88Y-37.9
X190.88Y-76.3
X191.38Y-64.4
X191.468Y-68.9
X191.58Y-56.5
X191.58Y-106.9
X191.878Y-76.284
X191.88Y-73.9
X191.914Y-94.234
X192.38Y-56.5
X192.38Y-64.4
X192.63Y-76.9
X192.88Y-73.9
X193.18Y-56.5
X193.328Y-83.848
X193.38Y-101.4
X193.38Y-102.4
X193.38Y-103.487
X193.38Y-106.9
X193.88Y-34.9
X193.88Y-35.9
X193.88Y-36.9
X193.88Y-37.9
X194.292Y-111.82
X194.33Y-84.284
X194.38Y-95.447
X194.38Y-102.4
X194.38Y-103.4
X194.78Y-96.201
X194.88Y-65.65
X194.98Y-73.05
X194.98Y-74.75
X194.98Y-75.55
X195.13Y-88.15
X195.13Y-89.65
X195.25Y-96.9
X195.28Y-110.9
X195.28Y-111.82
X195.38Y-103.4
X195.456Y-86.824
X195.63Y-76.15
X195.65Y-97.65
X195.831Y-120.851
X195.881Y-108.3
X195.898Y-91.665
X196.38Y-86.9
X196.38Y-90.9
X196.38Y-127.4
X196.58Y-73.1
X196.63Y-76.15
X196.63Y-120.9
X196.88Y-38.9
X196.88Y-39.9
X196.88Y-40.9
X196.88Y-41.9
X196.88Y-65.4
X196.88Y-66.4
X196.88Y-67.4
X197.13Y-124.9
X197.476Y-98.354
X197.48Y-120.9
X197.63Y-85.65
X197.63Y-92.15
X197.88Y-65.4
X197.88Y-66.4
X197.88Y-67.4
X197.88Y-68.9
X198.03Y-127.4
X198.28Y-97.55
X198.38Y-73.9
X199.13Y-85.65
X199.13Y-92.15
X199.13Y-96.7
X199.23Y-127.4
X199.28Y-120.9
X199.402Y-93.034
X199.58Y-75.1
X199.58Y-80.1
X199.63Y-124.9
X199.878Y-96.25
X200.13Y-120.9
X200.18Y-76.7
X200.18Y-79.5
X200.38Y-86.9
X200.38Y-90.9
X200.38Y-127.4
X200.88Y-39.9
X200.88Y-73.15
X200.88Y-75.15
X200.88Y-110.9
X200.88Y-111.9
X200.954Y-120.876
X201.154Y-86.409
X201.38Y-80.7
X201.63Y-88.15
X201.63Y-89.65
X201.88Y-39.9
X201.88Y-110.9
X201.88Y-111.9
X201.965Y-83.335
X201.98Y-73.9
X201.98Y-74.9
X201.98Y-81.7
X202.78Y-94.5
X202.88Y-34.9
X202.88Y-35.9
X202.88Y-36.9
X202.88Y-37.9
X202.88Y-38.9
X202.88Y-39.9
X202.88Y-40.9
X202.88Y-41.9
X202.88Y-45.4
X202.88Y-46.4
X202.88Y-47.4
X202.88Y-66.4
X202.88Y-67.4
X202.88Y-68.9
X202.88Y-110.9
X202.88Y-111.9
X202.88Y-112.9
X202.88Y-113.9
X203.18Y-95.335
X203.38Y-99.9
X203.88Y-45.4
X203.88Y-46.4
X203.88Y-47.4
X203.88Y-55.9
X203.88Y-56.9
X203.88Y-57.9
X203.88Y-66.4
X203.88Y-67.4
X203.88Y-110.9
X203.88Y-111.9
X203.88Y-112.9
X203.88Y-113.9
X204.202Y-86.473
X204.38Y-73.9
X204.38Y-100.9
X204.88Y-55.9
X204.88Y-56.9
X204.88Y-57.9
X204.88Y-66.4
X204.88Y-67.4
X204.88Y-78.15
X204.88Y-112.9
X204.88Y-113.9
X204.974Y-86.266
X205.38Y-73.9
X205.38Y-91.5
X205.706Y-78.626
X205.747Y-86.058
X205.88Y-34.9
X205.88Y-35.9
X205.88Y-36.9
X205.88Y-37.9
X205.88Y-112.9
X205.88Y-113.9
X206.487Y-98.207
X206.532Y-85.904
X206.78Y-91.5
X206.875Y-68.9
X207.03Y-58.65
X207.03Y-62.65
X207.03Y-66.65
X207.035Y-54.65
X207.38Y-120.4
X207.38Y-121.4
X207.537Y-97.157
X208.38Y-120.4
X208.38Y-121.4
X208.88Y-49.4
X208.88Y-50.4
X209.38Y-118.9
X209.38Y-120.4
X209.38Y-121.4
X209.505Y-87.7
X209.505Y-102.65
X209.675Y-82.21
X209.88Y-49.4
X209.88Y-50.4
X210.075Y-81.5
X210.38Y-94.9
X210.38Y-95.9
X210.475Y-80.7
X210.78Y-90.7
X210.875Y-79.9
X210.88Y-38.9
X210.88Y-39.9
X210.88Y-40.9
X210.88Y-41.9
X210.88Y-49.4
X210.88Y-50.4
X211.275Y-79.1
X211.38Y-90.1
X211.38Y-94.9
X211.38Y-95.9
X212.38Y-94.9
X212.38Y-95.9
X213.38Y-47.9
X213.38Y-57.9
X213.38Y-68.15
X213.38Y-78.15
X213.475Y-86.4
X214.745Y-91.4
X214.755Y-86.4
X215.38Y-82.9
X215.38Y-83.9
X215.455Y-46.401
X215.455Y-56.401
X215.455Y-66.651
X215.455Y-76.651
X216.015Y-86.4
X216.015Y-90.7
X216.38Y-82.9
X216.38Y-83.9
X217.28Y-86.4
X217.285Y-90.1
X217.38Y-82.9
X217.38Y-83.9
X217.88Y-43.9
X217.88Y-44.9
X217.88Y-45.9
X217.88Y-46.9
X217.88Y-47.9
X217.88Y-48.9
X217.88Y-49.9
X217.88Y-50.9
X217.88Y-53.9
X217.88Y-54.9
X217.88Y-55.9
X217.88Y-56.9
X217.88Y-57.9
X217.88Y-58.9
X217.88Y-59.9
X217.88Y-60.9
X217.88Y-63.9
X217.88Y-64.9
X217.88Y-65.9
X217.88Y-66.9
X217.88Y-67.9
X217.88Y-68.9
X217.88Y-69.9
X217.88Y-70.9
X217.88Y-74.4
X217.88Y-75.4
X217.88Y-76.4
X217.88Y-77.4
X217.88Y-78.4
X217.88Y-79.4
X217.88Y-80.4
X218.88Y-43.9
X218.88Y-44.9
X218.88Y-45.9
X218.88Y-46.9
X218.88Y-47.9
X218.88Y-48.9
X218.88Y-49.9
X218.88Y-50.9
X218.88Y-53.9
X218.88Y-54.9
X218.88Y-55.9
X218.88Y-56.9
X218.88Y-57.9
X218.88Y-58.9
X218.88Y-59.9
X218.88Y-60.9
X218.88Y-63.9
X218.88Y-64.9
X218.88Y-65.9
X218.88Y-66.9
X218.88Y-67.9
X218.88Y-68.9
X218.88Y-69.9
X218.88Y-70.9
X218.88Y-74.4
X218.88Y-75.4
X218.88Y-76.4
X218.88Y-77.4
X218.88Y-78.4
X218.88Y-79.4
X218.88Y-80.4
T2
X196.329Y-88.9
X197.355Y-87.875
X197.355Y-89.925
X198.38Y-86.849
X198.38Y-88.9
X198.38Y-90.951
X199.405Y-87.875
X199.405Y-89.925
X200.431Y-88.9
T4
X188.22Y-125.73
X188.22Y-128.27
X188.22Y-130.81
X190.76Y-125.73
X190.76Y-128.27
X190.76Y-130.81
X206.0Y-125.73
X206.0Y-128.27
X206.0Y-130.81
X208.54Y-125.73
X208.54Y-128.27
X208.54Y-130.81
T5
X180.84Y-44.45
X180.84Y-49.53
X180.84Y-54.61
X180.84Y-59.69
X180.84Y-64.77
X180.84Y-69.85
X180.84Y-74.93
X180.84Y-80.01
X180.84Y-97.79
X180.84Y-102.87
X180.84Y-107.95
X180.84Y-113.03
X180.84Y-118.11
X180.84Y-123.19
X215.9Y-44.45
X215.9Y-49.53
X215.9Y-54.61
X215.9Y-59.69
X215.9Y-64.77
X215.9Y-69.85
X215.9Y-74.93
X215.9Y-80.01
X215.9Y-97.79
X215.9Y-102.87
X215.9Y-107.95
X215.9Y-113.03
X215.9Y-118.11
X215.9Y-123.19
T3
X194.06Y-126.02G85X194.06Y-127.12
G05
X194.06Y-130.35G85X194.06Y-131.15
G05
X202.7Y-126.02G85X202.7Y-127.12
G05
X202.7Y-130.35G85X202.7Y-131.15
G05
M30
