%TF.GenerationSoftware,KiCad,Pcbnew,10.0.1*%
%TF.CreationDate,2026-07-21T21:46:29+01:00*%
%TF.ProjectId,flight computer,666c6967-6874-4206-936f-6d7075746572,rev?*%
%TF.SameCoordinates,Original*%
%TF.FileFunction,Drillmap*%
%TF.FilePolarity,Positive*%
%FSLAX45Y45*%
G04 Gerber Fmt 4.5, Leading zero omitted, Abs format (unit mm)*
G04 Created by KiCad (PCBNEW 10.0.1) date 2026-07-21 21:46:29*
%MOMM*%
%LPD*%
G01*
G04 APERTURE LIST*
%ADD10C,0.200000*%
%ADD11C,0.100000*%
%ADD12C,0.130000*%
G04 APERTURE END LIST*
D10*
X17679000Y-3429000D02*
X21997000Y-3429000D01*
X21997000Y-13335000D01*
X17679000Y-13335000D01*
X17679000Y-3429000D01*
D11*
X17773000Y-4275000D02*
X17803000Y-4305000D01*
X17803000Y-4275000D02*
X17773000Y-4305000D01*
X17773000Y-4375000D02*
X17803000Y-4405000D01*
X17803000Y-4375000D02*
X17773000Y-4405000D01*
X17773000Y-4475000D02*
X17803000Y-4505000D01*
X17803000Y-4475000D02*
X17773000Y-4505000D01*
X17873000Y-4275000D02*
X17903000Y-4305000D01*
X17903000Y-4275000D02*
X17873000Y-4305000D01*
X17873000Y-4375000D02*
X17903000Y-4405000D01*
X17903000Y-4375000D02*
X17873000Y-4405000D01*
X17873000Y-4475000D02*
X17903000Y-4505000D01*
X17903000Y-4475000D02*
X17873000Y-4505000D01*
X17973000Y-8325000D02*
X18003000Y-8355000D01*
X18003000Y-8325000D02*
X17973000Y-8355000D01*
X17973000Y-8425000D02*
X18003000Y-8455000D01*
X18003000Y-8425000D02*
X17973000Y-8455000D01*
X17973000Y-8525000D02*
X18003000Y-8555000D01*
X18003000Y-8525000D02*
X17973000Y-8555000D01*
X17973000Y-10975000D02*
X18003000Y-11005000D01*
X18003000Y-10975000D02*
X17973000Y-11005000D01*
X17973000Y-11075000D02*
X18003000Y-11105000D01*
X18003000Y-11075000D02*
X17973000Y-11105000D01*
X18073000Y-8325000D02*
X18103000Y-8355000D01*
X18103000Y-8325000D02*
X18073000Y-8355000D01*
X18073000Y-8425000D02*
X18103000Y-8455000D01*
X18103000Y-8425000D02*
X18073000Y-8455000D01*
X18073000Y-8525000D02*
X18103000Y-8555000D01*
X18103000Y-8525000D02*
X18073000Y-8555000D01*
X18073000Y-10975000D02*
X18103000Y-11005000D01*
X18103000Y-10975000D02*
X18073000Y-11005000D01*
X18073000Y-11075000D02*
X18103000Y-11105000D01*
X18103000Y-11075000D02*
X18073000Y-11105000D01*
X18173000Y-10975000D02*
X18203000Y-11005000D01*
X18203000Y-10975000D02*
X18173000Y-11005000D01*
X18173000Y-11075000D02*
X18203000Y-11105000D01*
X18203000Y-11075000D02*
X18173000Y-11105000D01*
X18273000Y-10975000D02*
X18303000Y-11005000D01*
X18303000Y-10975000D02*
X18273000Y-11005000D01*
X18273000Y-11075000D02*
X18303000Y-11105000D01*
X18303000Y-11075000D02*
X18273000Y-11105000D01*
X18373000Y-4125000D02*
X18403000Y-4155000D01*
X18403000Y-4125000D02*
X18373000Y-4155000D01*
X18373000Y-4225000D02*
X18403000Y-4255000D01*
X18403000Y-4225000D02*
X18373000Y-4255000D01*
X18373000Y-10975000D02*
X18403000Y-11005000D01*
X18403000Y-10975000D02*
X18373000Y-11005000D01*
X18373000Y-11075000D02*
X18403000Y-11105000D01*
X18403000Y-11075000D02*
X18373000Y-11105000D01*
X18390500Y-9895000D02*
X18420500Y-9925000D01*
X18420500Y-9895000D02*
X18390500Y-9925000D01*
X18390500Y-10161131D02*
X18420500Y-10191131D01*
X18420500Y-10161131D02*
X18390500Y-10191131D01*
X18390500Y-10081131D02*
X18420500Y-10111131D01*
X18420500Y-10081131D02*
X18390500Y-10111131D01*
X18448000Y-7375000D02*
X18478000Y-7405000D01*
X18478000Y-7375000D02*
X18448000Y-7405000D01*
X18448000Y-7475000D02*
X18478000Y-7505000D01*
X18478000Y-7475000D02*
X18448000Y-7505000D01*
X18448000Y-7575000D02*
X18478000Y-7605000D01*
X18478000Y-7575000D02*
X18448000Y-7605000D01*
X18448000Y-8075000D02*
X18478000Y-8105000D01*
X18478000Y-8075000D02*
X18448000Y-8105000D01*
X18448000Y-8175000D02*
X18478000Y-8205000D01*
X18478000Y-8175000D02*
X18448000Y-8205000D01*
X18448000Y-9025000D02*
X18478000Y-9055000D01*
X18478000Y-9025000D02*
X18448000Y-9055000D01*
X18473000Y-4125000D02*
X18503000Y-4155000D01*
X18503000Y-4125000D02*
X18473000Y-4155000D01*
X18473000Y-4225000D02*
X18503000Y-4255000D01*
X18503000Y-4225000D02*
X18473000Y-4255000D01*
X18473000Y-9875000D02*
X18503000Y-9905000D01*
X18503000Y-9875000D02*
X18473000Y-9905000D01*
X18473000Y-9975000D02*
X18503000Y-10005000D01*
X18503000Y-9975000D02*
X18473000Y-10005000D01*
X18473000Y-10075000D02*
X18503000Y-10105000D01*
X18503000Y-10075000D02*
X18473000Y-10105000D01*
X18473000Y-10175000D02*
X18503000Y-10205000D01*
X18503000Y-10175000D02*
X18473000Y-10205000D01*
X18473000Y-10975000D02*
X18503000Y-11005000D01*
X18503000Y-10975000D02*
X18473000Y-11005000D01*
X18473000Y-11075000D02*
X18503000Y-11105000D01*
X18503000Y-11075000D02*
X18473000Y-11105000D01*
X18548000Y-8075000D02*
X18578000Y-8105000D01*
X18578000Y-8075000D02*
X18548000Y-8105000D01*
X18548000Y-8175000D02*
X18578000Y-8205000D01*
X18578000Y-8175000D02*
X18548000Y-8205000D01*
X18573000Y-4125000D02*
X18603000Y-4155000D01*
X18603000Y-4125000D02*
X18573000Y-4155000D01*
X18573000Y-4225000D02*
X18603000Y-4255000D01*
X18603000Y-4225000D02*
X18573000Y-4255000D01*
X18573000Y-9875000D02*
X18603000Y-9905000D01*
X18603000Y-9875000D02*
X18573000Y-9905000D01*
X18573000Y-9975000D02*
X18603000Y-10005000D01*
X18603000Y-9975000D02*
X18573000Y-10005000D01*
X18573000Y-10075000D02*
X18603000Y-10105000D01*
X18603000Y-10075000D02*
X18573000Y-10105000D01*
X18573000Y-10175000D02*
X18603000Y-10205000D01*
X18603000Y-10175000D02*
X18573000Y-10205000D01*
X18573000Y-10975000D02*
X18603000Y-11005000D01*
X18603000Y-10975000D02*
X18573000Y-11005000D01*
X18573000Y-11075000D02*
X18603000Y-11105000D01*
X18603000Y-11075000D02*
X18573000Y-11105000D01*
X18643000Y-4875000D02*
X18673000Y-4905000D01*
X18673000Y-4875000D02*
X18643000Y-4905000D01*
X18648000Y-8075000D02*
X18678000Y-8105000D01*
X18678000Y-8075000D02*
X18648000Y-8105000D01*
X18648000Y-8175000D02*
X18678000Y-8205000D01*
X18678000Y-8175000D02*
X18648000Y-8205000D01*
X18663000Y-4955000D02*
X18693000Y-4985000D01*
X18693000Y-4955000D02*
X18663000Y-4985000D01*
X18673000Y-9875000D02*
X18703000Y-9905000D01*
X18703000Y-9875000D02*
X18673000Y-9905000D01*
X18673000Y-9975000D02*
X18703000Y-10005000D01*
X18703000Y-9975000D02*
X18673000Y-10005000D01*
X18673000Y-10075000D02*
X18703000Y-10105000D01*
X18703000Y-10075000D02*
X18673000Y-10105000D01*
X18673000Y-10175000D02*
X18703000Y-10205000D01*
X18703000Y-10175000D02*
X18673000Y-10205000D01*
X18673000Y-10975000D02*
X18703000Y-11005000D01*
X18703000Y-10975000D02*
X18673000Y-11005000D01*
X18673000Y-11075000D02*
X18703000Y-11105000D01*
X18703000Y-11075000D02*
X18673000Y-11105000D01*
X18683000Y-5035000D02*
X18713000Y-5065000D01*
X18713000Y-5035000D02*
X18683000Y-5065000D01*
X18703000Y-5115000D02*
X18733000Y-5145000D01*
X18733000Y-5115000D02*
X18703000Y-5145000D01*
X18710500Y-10412500D02*
X18740500Y-10442500D01*
X18740500Y-10412500D02*
X18710500Y-10442500D01*
X18723000Y-5195000D02*
X18753000Y-5225000D01*
X18753000Y-5195000D02*
X18723000Y-5225000D01*
X18743000Y-8425500D02*
X18773000Y-8455500D01*
X18773000Y-8425500D02*
X18743000Y-8455500D01*
X18743000Y-8535500D02*
X18773000Y-8565500D01*
X18773000Y-8535500D02*
X18743000Y-8565500D01*
X18743000Y-8645500D02*
X18773000Y-8675500D01*
X18773000Y-8645500D02*
X18743000Y-8675500D01*
X18743000Y-8755500D02*
X18773000Y-8785500D01*
X18773000Y-8755500D02*
X18743000Y-8785500D01*
X18743000Y-8975500D02*
X18773000Y-9005500D01*
X18773000Y-8975500D02*
X18743000Y-9005500D01*
X18743000Y-9085500D02*
X18773000Y-9115500D01*
X18773000Y-9085500D02*
X18743000Y-9115500D01*
X18743000Y-9195500D02*
X18773000Y-9225500D01*
X18773000Y-9195500D02*
X18743000Y-9225500D01*
X18755500Y-9895000D02*
X18785500Y-9925000D01*
X18785500Y-9895000D02*
X18755500Y-9925000D01*
X18755500Y-10155000D02*
X18785500Y-10185000D01*
X18785500Y-10155000D02*
X18755500Y-10185000D01*
X18763000Y-6875000D02*
X18793000Y-6905000D01*
X18793000Y-6875000D02*
X18763000Y-6905000D01*
X18773000Y-10975000D02*
X18803000Y-11005000D01*
X18803000Y-10975000D02*
X18773000Y-11005000D01*
X18773000Y-11075000D02*
X18803000Y-11105000D01*
X18803000Y-11075000D02*
X18773000Y-11105000D01*
X18803000Y-7275000D02*
X18833000Y-7305000D01*
X18833000Y-7275000D02*
X18803000Y-7305000D01*
X18803000Y-7394853D02*
X18833000Y-7424853D01*
X18833000Y-7394853D02*
X18803000Y-7424853D01*
X18873000Y-3975000D02*
X18903000Y-4005000D01*
X18903000Y-3975000D02*
X18873000Y-4005000D01*
X18903000Y-6875000D02*
X18933000Y-6905000D01*
X18933000Y-6875000D02*
X18903000Y-6905000D01*
X18923000Y-6175000D02*
X18953000Y-6205000D01*
X18953000Y-6175000D02*
X18923000Y-6205000D01*
X18923000Y-6275000D02*
X18953000Y-6305000D01*
X18953000Y-6275000D02*
X18923000Y-6305000D01*
X18923000Y-8455000D02*
X18953000Y-8485000D01*
X18953000Y-8455000D02*
X18923000Y-8485000D01*
X18973000Y-3975000D02*
X19003000Y-4005000D01*
X19003000Y-3975000D02*
X18973000Y-4005000D01*
X18973000Y-4075000D02*
X19003000Y-4105000D01*
X19003000Y-4075000D02*
X18973000Y-4105000D01*
X18973000Y-4175000D02*
X19003000Y-4205000D01*
X19003000Y-4175000D02*
X18973000Y-4205000D01*
X18983000Y-9275000D02*
X19013000Y-9305000D01*
X19013000Y-9275000D02*
X18983000Y-9305000D01*
X19003000Y-8395000D02*
X19033000Y-8425000D01*
X19033000Y-8395000D02*
X19003000Y-8425000D01*
X19043000Y-6875000D02*
X19073000Y-6905000D01*
X19073000Y-6875000D02*
X19043000Y-6905000D01*
X19073000Y-3475000D02*
X19103000Y-3505000D01*
X19103000Y-3475000D02*
X19073000Y-3505000D01*
X19073000Y-3575000D02*
X19103000Y-3605000D01*
X19103000Y-3575000D02*
X19073000Y-3605000D01*
X19073000Y-3675000D02*
X19103000Y-3705000D01*
X19103000Y-3675000D02*
X19073000Y-3705000D01*
X19073000Y-3775000D02*
X19103000Y-3805000D01*
X19103000Y-3775000D02*
X19073000Y-3805000D01*
X19073000Y-7615000D02*
X19103000Y-7645000D01*
X19103000Y-7615000D02*
X19073000Y-7645000D01*
X19123000Y-6425000D02*
X19153000Y-6455000D01*
X19153000Y-6425000D02*
X19123000Y-6455000D01*
X19131750Y-6875000D02*
X19161750Y-6905000D01*
X19161750Y-6875000D02*
X19131750Y-6905000D01*
X19142999Y-5635000D02*
X19172999Y-5665000D01*
X19172999Y-5635000D02*
X19142999Y-5665000D01*
X19143000Y-10675000D02*
X19173000Y-10705000D01*
X19173000Y-10675000D02*
X19143000Y-10705000D01*
X19172775Y-7613354D02*
X19202775Y-7643354D01*
X19202775Y-7613354D02*
X19172775Y-7643354D01*
X19173000Y-7375000D02*
X19203000Y-7405000D01*
X19203000Y-7375000D02*
X19173000Y-7405000D01*
X19176432Y-9408432D02*
X19206432Y-9438432D01*
X19206432Y-9408432D02*
X19176432Y-9438432D01*
X19223000Y-5635000D02*
X19253000Y-5665000D01*
X19253000Y-5635000D02*
X19223000Y-5665000D01*
X19223000Y-6425000D02*
X19253000Y-6455000D01*
X19253000Y-6425000D02*
X19223000Y-6455000D01*
X19248000Y-7675000D02*
X19278000Y-7705000D01*
X19278000Y-7675000D02*
X19248000Y-7705000D01*
X19273000Y-7375000D02*
X19303000Y-7405000D01*
X19303000Y-7375000D02*
X19273000Y-7405000D01*
X19303000Y-5635000D02*
X19333000Y-5665000D01*
X19333000Y-5635000D02*
X19303000Y-5665000D01*
X19317762Y-8369762D02*
X19347762Y-8399762D01*
X19347762Y-8369762D02*
X19317762Y-8399762D01*
X19323000Y-10125000D02*
X19353000Y-10155000D01*
X19353000Y-10125000D02*
X19323000Y-10155000D01*
X19323000Y-10225000D02*
X19353000Y-10255000D01*
X19353000Y-10225000D02*
X19323000Y-10255000D01*
X19323000Y-10333750D02*
X19353000Y-10363750D01*
X19353000Y-10333750D02*
X19323000Y-10363750D01*
X19323000Y-10675000D02*
X19353000Y-10705000D01*
X19353000Y-10675000D02*
X19323000Y-10705000D01*
X19373000Y-3475000D02*
X19403000Y-3505000D01*
X19403000Y-3475000D02*
X19373000Y-3505000D01*
X19373000Y-3575000D02*
X19403000Y-3605000D01*
X19403000Y-3575000D02*
X19373000Y-3605000D01*
X19373000Y-3675000D02*
X19403000Y-3705000D01*
X19403000Y-3675000D02*
X19373000Y-3705000D01*
X19373000Y-3775000D02*
X19403000Y-3805000D01*
X19403000Y-3775000D02*
X19373000Y-3805000D01*
X19414250Y-11167000D02*
X19444250Y-11197000D01*
X19444250Y-11167000D02*
X19414250Y-11197000D01*
X19418000Y-8413431D02*
X19448000Y-8443431D01*
X19448000Y-8413431D02*
X19418000Y-8443431D01*
X19423000Y-9529698D02*
X19453000Y-9559698D01*
X19453000Y-9529698D02*
X19423000Y-9559698D01*
X19423000Y-10225000D02*
X19453000Y-10255000D01*
X19453000Y-10225000D02*
X19423000Y-10255000D01*
X19423000Y-10325000D02*
X19453000Y-10355000D01*
X19453000Y-10325000D02*
X19423000Y-10355000D01*
X19463000Y-9605147D02*
X19493000Y-9635147D01*
X19493000Y-9605147D02*
X19463000Y-9635147D01*
X19473000Y-6550000D02*
X19503000Y-6580000D01*
X19503000Y-6550000D02*
X19473000Y-6580000D01*
X19483000Y-7290000D02*
X19513000Y-7320000D01*
X19513000Y-7290000D02*
X19483000Y-7320000D01*
X19483000Y-7460000D02*
X19513000Y-7490000D01*
X19513000Y-7460000D02*
X19483000Y-7490000D01*
X19483000Y-7540000D02*
X19513000Y-7570000D01*
X19513000Y-7540000D02*
X19483000Y-7570000D01*
X19498000Y-8800000D02*
X19528000Y-8830000D01*
X19528000Y-8800000D02*
X19498000Y-8830000D01*
X19498000Y-8950000D02*
X19528000Y-8980000D01*
X19528000Y-8950000D02*
X19498000Y-8980000D01*
X19510016Y-9675000D02*
X19540016Y-9705000D01*
X19540016Y-9675000D02*
X19510016Y-9705000D01*
X19513000Y-11075000D02*
X19543000Y-11105000D01*
X19543000Y-11075000D02*
X19513000Y-11105000D01*
X19513000Y-11167000D02*
X19543000Y-11197000D01*
X19543000Y-11167000D02*
X19513000Y-11197000D01*
X19523000Y-10325000D02*
X19553000Y-10355000D01*
X19553000Y-10325000D02*
X19523000Y-10355000D01*
X19530574Y-8667426D02*
X19560574Y-8697426D01*
X19560574Y-8667426D02*
X19530574Y-8697426D01*
X19548000Y-7600000D02*
X19578000Y-7630000D01*
X19578000Y-7600000D02*
X19548000Y-7630000D01*
X19550016Y-9750000D02*
X19580016Y-9780000D01*
X19580016Y-9750000D02*
X19550016Y-9780000D01*
X19568074Y-12070073D02*
X19598074Y-12100073D01*
X19598074Y-12070073D02*
X19568074Y-12100073D01*
X19573069Y-10815000D02*
X19603069Y-10845000D01*
X19603069Y-10815000D02*
X19573069Y-10845000D01*
X19574844Y-9151458D02*
X19604844Y-9181458D01*
X19604844Y-9151458D02*
X19574844Y-9181458D01*
X19623000Y-8675000D02*
X19653000Y-8705000D01*
X19653000Y-8675000D02*
X19623000Y-8705000D01*
X19623000Y-9075000D02*
X19653000Y-9105000D01*
X19653000Y-9075000D02*
X19623000Y-9105000D01*
X19623000Y-12725000D02*
X19653000Y-12755000D01*
X19653000Y-12725000D02*
X19623000Y-12755000D01*
X19643000Y-7295000D02*
X19673000Y-7325000D01*
X19673000Y-7295000D02*
X19643000Y-7325000D01*
X19648000Y-7600000D02*
X19678000Y-7630000D01*
X19678000Y-7600000D02*
X19648000Y-7630000D01*
X19648000Y-12075000D02*
X19678000Y-12105000D01*
X19678000Y-12075000D02*
X19648000Y-12105000D01*
X19673000Y-3875000D02*
X19703000Y-3905000D01*
X19703000Y-3875000D02*
X19673000Y-3905000D01*
X19673000Y-3975000D02*
X19703000Y-4005000D01*
X19703000Y-3975000D02*
X19673000Y-4005000D01*
X19673000Y-4075000D02*
X19703000Y-4105000D01*
X19703000Y-4075000D02*
X19673000Y-4105000D01*
X19673000Y-4175000D02*
X19703000Y-4205000D01*
X19703000Y-4175000D02*
X19673000Y-4205000D01*
X19673000Y-6525000D02*
X19703000Y-6555000D01*
X19703000Y-6525000D02*
X19673000Y-6555000D01*
X19673000Y-6625000D02*
X19703000Y-6655000D01*
X19703000Y-6625000D02*
X19673000Y-6655000D01*
X19673000Y-6725000D02*
X19703000Y-6755000D01*
X19703000Y-6725000D02*
X19673000Y-6755000D01*
X19698000Y-12475000D02*
X19728000Y-12505000D01*
X19728000Y-12475000D02*
X19698000Y-12505000D01*
X19732559Y-9820442D02*
X19762559Y-9850442D01*
X19762559Y-9820442D02*
X19732559Y-9850442D01*
X19733000Y-12075000D02*
X19763000Y-12105000D01*
X19763000Y-12075000D02*
X19733000Y-12105000D01*
X19748000Y-8550000D02*
X19778000Y-8580000D01*
X19778000Y-8550000D02*
X19748000Y-8580000D01*
X19748000Y-9200000D02*
X19778000Y-9230000D01*
X19778000Y-9200000D02*
X19748000Y-9230000D01*
X19773000Y-6525000D02*
X19803000Y-6555000D01*
X19803000Y-6525000D02*
X19773000Y-6555000D01*
X19773000Y-6625000D02*
X19803000Y-6655000D01*
X19803000Y-6625000D02*
X19773000Y-6655000D01*
X19773000Y-6725000D02*
X19803000Y-6755000D01*
X19803000Y-6725000D02*
X19773000Y-6755000D01*
X19773000Y-6875000D02*
X19803000Y-6905000D01*
X19803000Y-6875000D02*
X19773000Y-6905000D01*
X19788000Y-12725000D02*
X19818000Y-12755000D01*
X19818000Y-12725000D02*
X19788000Y-12755000D01*
X19813000Y-9740000D02*
X19843000Y-9770000D01*
X19843000Y-9740000D02*
X19813000Y-9770000D01*
X19823000Y-7375000D02*
X19853000Y-7405000D01*
X19853000Y-7375000D02*
X19823000Y-7405000D01*
X19898000Y-8550000D02*
X19928000Y-8580000D01*
X19928000Y-8550000D02*
X19898000Y-8580000D01*
X19898000Y-9200000D02*
X19928000Y-9230000D01*
X19928000Y-9200000D02*
X19898000Y-9230000D01*
X19898000Y-9655000D02*
X19928000Y-9685000D01*
X19928000Y-9655000D02*
X19898000Y-9685000D01*
X19908000Y-12725000D02*
X19938000Y-12755000D01*
X19938000Y-12725000D02*
X19908000Y-12755000D01*
X19913000Y-12075000D02*
X19943000Y-12105000D01*
X19943000Y-12075000D02*
X19913000Y-12105000D01*
X19925231Y-9288358D02*
X19955231Y-9318358D01*
X19955231Y-9288358D02*
X19925231Y-9318358D01*
X19943000Y-7495000D02*
X19973000Y-7525000D01*
X19973000Y-7495000D02*
X19943000Y-7525000D01*
X19943000Y-7995000D02*
X19973000Y-8025000D01*
X19973000Y-7995000D02*
X19943000Y-8025000D01*
X19948000Y-12475000D02*
X19978000Y-12505000D01*
X19978000Y-12475000D02*
X19948000Y-12505000D01*
X19972814Y-9610040D02*
X20002814Y-9640040D01*
X20002814Y-9610040D02*
X19972814Y-9640040D01*
X19998000Y-12075000D02*
X20028000Y-12105000D01*
X20028000Y-12075000D02*
X19998000Y-12105000D01*
X20003000Y-7655000D02*
X20033000Y-7685000D01*
X20033000Y-7655000D02*
X20003000Y-7685000D01*
X20003000Y-7935000D02*
X20033000Y-7965000D01*
X20033000Y-7935000D02*
X20003000Y-7965000D01*
X20023000Y-8675000D02*
X20053000Y-8705000D01*
X20053000Y-8675000D02*
X20023000Y-8705000D01*
X20023000Y-9075000D02*
X20053000Y-9105000D01*
X20053000Y-9075000D02*
X20023000Y-9105000D01*
X20023000Y-12725000D02*
X20053000Y-12755000D01*
X20053000Y-12725000D02*
X20023000Y-12755000D01*
X20073000Y-3975000D02*
X20103000Y-4005000D01*
X20103000Y-3975000D02*
X20073000Y-4005000D01*
X20073000Y-7300000D02*
X20103000Y-7330000D01*
X20103000Y-7300000D02*
X20073000Y-7330000D01*
X20073000Y-7500000D02*
X20103000Y-7530000D01*
X20103000Y-7500000D02*
X20073000Y-7530000D01*
X20073000Y-11075000D02*
X20103000Y-11105000D01*
X20103000Y-11075000D02*
X20073000Y-11105000D01*
X20073000Y-11175000D02*
X20103000Y-11205000D01*
X20103000Y-11175000D02*
X20073000Y-11205000D01*
X20080427Y-12072574D02*
X20110427Y-12102574D01*
X20110427Y-12072574D02*
X20080427Y-12102574D01*
X20100371Y-8625913D02*
X20130371Y-8655913D01*
X20130371Y-8625913D02*
X20100371Y-8655913D01*
X20123000Y-8055000D02*
X20153000Y-8085000D01*
X20153000Y-8055000D02*
X20123000Y-8085000D01*
X20148000Y-8800000D02*
X20178000Y-8830000D01*
X20178000Y-8800000D02*
X20148000Y-8830000D01*
X20148000Y-8950000D02*
X20178000Y-8980000D01*
X20178000Y-8950000D02*
X20148000Y-8980000D01*
X20173000Y-3975000D02*
X20203000Y-4005000D01*
X20203000Y-3975000D02*
X20173000Y-4005000D01*
X20173000Y-11075000D02*
X20203000Y-11105000D01*
X20203000Y-11075000D02*
X20173000Y-11105000D01*
X20173000Y-11175000D02*
X20203000Y-11205000D01*
X20203000Y-11175000D02*
X20173000Y-11205000D01*
X20181505Y-8318505D02*
X20211505Y-8348505D01*
X20211505Y-8318505D02*
X20181505Y-8348505D01*
X20183000Y-7375000D02*
X20213000Y-7405000D01*
X20213000Y-7375000D02*
X20183000Y-7405000D01*
X20183000Y-7475000D02*
X20213000Y-7505000D01*
X20213000Y-7475000D02*
X20183000Y-7505000D01*
X20183000Y-8155000D02*
X20213000Y-8185000D01*
X20213000Y-8155000D02*
X20183000Y-8185000D01*
X20263000Y-9435000D02*
X20293000Y-9465000D01*
X20293000Y-9435000D02*
X20263000Y-9465000D01*
X20273000Y-3475000D02*
X20303000Y-3505000D01*
X20303000Y-3475000D02*
X20273000Y-3505000D01*
X20273000Y-3575000D02*
X20303000Y-3605000D01*
X20303000Y-3575000D02*
X20273000Y-3605000D01*
X20273000Y-3675000D02*
X20303000Y-3705000D01*
X20303000Y-3675000D02*
X20273000Y-3705000D01*
X20273000Y-3775000D02*
X20303000Y-3805000D01*
X20303000Y-3775000D02*
X20273000Y-3805000D01*
X20273000Y-3875000D02*
X20303000Y-3905000D01*
X20303000Y-3875000D02*
X20273000Y-3905000D01*
X20273000Y-3975000D02*
X20303000Y-4005000D01*
X20303000Y-3975000D02*
X20273000Y-4005000D01*
X20273000Y-4075000D02*
X20303000Y-4105000D01*
X20303000Y-4075000D02*
X20273000Y-4105000D01*
X20273000Y-4175000D02*
X20303000Y-4205000D01*
X20303000Y-4175000D02*
X20273000Y-4205000D01*
X20273000Y-4525000D02*
X20303000Y-4555000D01*
X20303000Y-4525000D02*
X20273000Y-4555000D01*
X20273000Y-4625000D02*
X20303000Y-4655000D01*
X20303000Y-4625000D02*
X20273000Y-4655000D01*
X20273000Y-4725000D02*
X20303000Y-4755000D01*
X20303000Y-4725000D02*
X20273000Y-4755000D01*
X20273000Y-6625000D02*
X20303000Y-6655000D01*
X20303000Y-6625000D02*
X20273000Y-6655000D01*
X20273000Y-6725000D02*
X20303000Y-6755000D01*
X20303000Y-6725000D02*
X20273000Y-6755000D01*
X20273000Y-6875000D02*
X20303000Y-6905000D01*
X20303000Y-6875000D02*
X20273000Y-6905000D01*
X20273000Y-11075000D02*
X20303000Y-11105000D01*
X20303000Y-11075000D02*
X20273000Y-11105000D01*
X20273000Y-11175000D02*
X20303000Y-11205000D01*
X20303000Y-11175000D02*
X20273000Y-11205000D01*
X20273000Y-11275000D02*
X20303000Y-11305000D01*
X20303000Y-11275000D02*
X20273000Y-11305000D01*
X20273000Y-11375000D02*
X20303000Y-11405000D01*
X20303000Y-11375000D02*
X20273000Y-11405000D01*
X20303000Y-9518515D02*
X20333000Y-9548515D01*
X20333000Y-9518515D02*
X20303000Y-9548515D01*
X20323000Y-9975000D02*
X20353000Y-10005000D01*
X20353000Y-9975000D02*
X20323000Y-10005000D01*
X20373000Y-4525000D02*
X20403000Y-4555000D01*
X20403000Y-4525000D02*
X20373000Y-4555000D01*
X20373000Y-4625000D02*
X20403000Y-4655000D01*
X20403000Y-4625000D02*
X20373000Y-4655000D01*
X20373000Y-4725000D02*
X20403000Y-4755000D01*
X20403000Y-4725000D02*
X20373000Y-4755000D01*
X20373000Y-5575000D02*
X20403000Y-5605000D01*
X20403000Y-5575000D02*
X20373000Y-5605000D01*
X20373000Y-5675000D02*
X20403000Y-5705000D01*
X20403000Y-5675000D02*
X20373000Y-5705000D01*
X20373000Y-5775000D02*
X20403000Y-5805000D01*
X20403000Y-5775000D02*
X20373000Y-5805000D01*
X20373000Y-6625000D02*
X20403000Y-6655000D01*
X20403000Y-6625000D02*
X20373000Y-6655000D01*
X20373000Y-6725000D02*
X20403000Y-6755000D01*
X20403000Y-6725000D02*
X20373000Y-6755000D01*
X20373000Y-11075000D02*
X20403000Y-11105000D01*
X20403000Y-11075000D02*
X20373000Y-11105000D01*
X20373000Y-11175000D02*
X20403000Y-11205000D01*
X20403000Y-11175000D02*
X20373000Y-11205000D01*
X20373000Y-11275000D02*
X20403000Y-11305000D01*
X20403000Y-11275000D02*
X20373000Y-11305000D01*
X20373000Y-11375000D02*
X20403000Y-11405000D01*
X20403000Y-11375000D02*
X20373000Y-11405000D01*
X20405151Y-8632261D02*
X20435151Y-8662261D01*
X20435151Y-8632261D02*
X20405151Y-8662261D01*
X20423000Y-7375000D02*
X20453000Y-7405000D01*
X20453000Y-7375000D02*
X20423000Y-7405000D01*
X20423000Y-10075000D02*
X20453000Y-10105000D01*
X20453000Y-10075000D02*
X20423000Y-10105000D01*
X20473000Y-5575000D02*
X20503000Y-5605000D01*
X20503000Y-5575000D02*
X20473000Y-5605000D01*
X20473000Y-5675000D02*
X20503000Y-5705000D01*
X20503000Y-5675000D02*
X20473000Y-5705000D01*
X20473000Y-5775000D02*
X20503000Y-5805000D01*
X20503000Y-5775000D02*
X20473000Y-5805000D01*
X20473000Y-6625000D02*
X20503000Y-6655000D01*
X20503000Y-6625000D02*
X20473000Y-6655000D01*
X20473000Y-6725000D02*
X20503000Y-6755000D01*
X20503000Y-6725000D02*
X20473000Y-6755000D01*
X20473000Y-7800000D02*
X20503000Y-7830000D01*
X20503000Y-7800000D02*
X20473000Y-7830000D01*
X20473000Y-11275000D02*
X20503000Y-11305000D01*
X20503000Y-11275000D02*
X20473000Y-11305000D01*
X20473000Y-11375000D02*
X20503000Y-11405000D01*
X20503000Y-11375000D02*
X20473000Y-11405000D01*
X20482425Y-8611555D02*
X20512425Y-8641555D01*
X20512425Y-8611555D02*
X20482425Y-8641555D01*
X20523000Y-7375000D02*
X20553000Y-7405000D01*
X20553000Y-7375000D02*
X20523000Y-7405000D01*
X20523000Y-9135000D02*
X20553000Y-9165000D01*
X20553000Y-9135000D02*
X20523000Y-9165000D01*
X20555574Y-7847573D02*
X20585574Y-7877573D01*
X20585574Y-7847573D02*
X20555574Y-7877573D01*
X20559699Y-8590849D02*
X20589699Y-8620849D01*
X20589699Y-8590849D02*
X20559699Y-8620849D01*
X20573000Y-3475000D02*
X20603000Y-3505000D01*
X20603000Y-3475000D02*
X20573000Y-3505000D01*
X20573000Y-3575000D02*
X20603000Y-3605000D01*
X20603000Y-3575000D02*
X20573000Y-3605000D01*
X20573000Y-3675000D02*
X20603000Y-3705000D01*
X20603000Y-3675000D02*
X20573000Y-3705000D01*
X20573000Y-3775000D02*
X20603000Y-3805000D01*
X20603000Y-3775000D02*
X20573000Y-3805000D01*
X20573000Y-11275000D02*
X20603000Y-11305000D01*
X20603000Y-11275000D02*
X20573000Y-11305000D01*
X20573000Y-11375000D02*
X20603000Y-11405000D01*
X20603000Y-11375000D02*
X20573000Y-11405000D01*
X20633711Y-9805711D02*
X20663711Y-9835711D01*
X20663711Y-9805711D02*
X20633711Y-9835711D01*
X20638192Y-8575396D02*
X20668192Y-8605396D01*
X20668192Y-8575396D02*
X20638192Y-8605396D01*
X20663000Y-9135000D02*
X20693000Y-9165000D01*
X20693000Y-9135000D02*
X20663000Y-9165000D01*
X20672524Y-6875000D02*
X20702524Y-6905000D01*
X20702524Y-6875000D02*
X20672524Y-6905000D01*
X20688000Y-5850000D02*
X20718000Y-5880000D01*
X20718000Y-5850000D02*
X20688000Y-5880000D01*
X20688000Y-6250000D02*
X20718000Y-6280000D01*
X20718000Y-6250000D02*
X20688000Y-6280000D01*
X20688000Y-6650000D02*
X20718000Y-6680000D01*
X20718000Y-6650000D02*
X20688000Y-6680000D01*
X20688522Y-5450000D02*
X20718522Y-5480000D01*
X20718522Y-5450000D02*
X20688522Y-5480000D01*
X20723000Y-12025000D02*
X20753000Y-12055000D01*
X20753000Y-12025000D02*
X20723000Y-12055000D01*
X20723000Y-12125000D02*
X20753000Y-12155000D01*
X20753000Y-12125000D02*
X20723000Y-12155000D01*
X20738711Y-9700711D02*
X20768711Y-9730711D01*
X20768711Y-9700711D02*
X20738711Y-9730711D01*
X20823000Y-12025000D02*
X20853000Y-12055000D01*
X20853000Y-12025000D02*
X20823000Y-12055000D01*
X20823000Y-12125000D02*
X20853000Y-12155000D01*
X20853000Y-12125000D02*
X20823000Y-12155000D01*
X20873000Y-4925000D02*
X20903000Y-4955000D01*
X20903000Y-4925000D02*
X20873000Y-4955000D01*
X20873000Y-5025000D02*
X20903000Y-5055000D01*
X20903000Y-5025000D02*
X20873000Y-5055000D01*
X20923000Y-11875000D02*
X20953000Y-11905000D01*
X20953000Y-11875000D02*
X20923000Y-11905000D01*
X20923000Y-12025000D02*
X20953000Y-12055000D01*
X20953000Y-12025000D02*
X20923000Y-12055000D01*
X20923000Y-12125000D02*
X20953000Y-12155000D01*
X20953000Y-12125000D02*
X20923000Y-12155000D01*
X20935500Y-8755000D02*
X20965500Y-8785000D01*
X20965500Y-8755000D02*
X20935500Y-8785000D01*
X20935500Y-10250000D02*
X20965500Y-10280000D01*
X20965500Y-10250000D02*
X20935500Y-10280000D01*
X20952524Y-8205971D02*
X20982524Y-8235971D01*
X20982524Y-8205971D02*
X20952524Y-8235971D01*
X20973000Y-4925000D02*
X21003000Y-4955000D01*
X21003000Y-4925000D02*
X20973000Y-4955000D01*
X20973000Y-5025000D02*
X21003000Y-5055000D01*
X21003000Y-5025000D02*
X20973000Y-5055000D01*
X20992524Y-8135000D02*
X21022524Y-8165000D01*
X21022524Y-8135000D02*
X20992524Y-8165000D01*
X21023000Y-9475000D02*
X21053000Y-9505000D01*
X21053000Y-9475000D02*
X21023000Y-9505000D01*
X21023000Y-9575000D02*
X21053000Y-9605000D01*
X21053000Y-9575000D02*
X21023000Y-9605000D01*
X21032524Y-8055000D02*
X21062524Y-8085000D01*
X21062524Y-8055000D02*
X21032524Y-8085000D01*
X21063000Y-9055000D02*
X21093000Y-9085000D01*
X21093000Y-9055000D02*
X21063000Y-9085000D01*
X21072524Y-7975000D02*
X21102524Y-8005000D01*
X21102524Y-7975000D02*
X21072524Y-8005000D01*
X21073000Y-3875000D02*
X21103000Y-3905000D01*
X21103000Y-3875000D02*
X21073000Y-3905000D01*
X21073000Y-3975000D02*
X21103000Y-4005000D01*
X21103000Y-3975000D02*
X21073000Y-4005000D01*
X21073000Y-4075000D02*
X21103000Y-4105000D01*
X21103000Y-4075000D02*
X21073000Y-4105000D01*
X21073000Y-4175000D02*
X21103000Y-4205000D01*
X21103000Y-4175000D02*
X21073000Y-4205000D01*
X21073000Y-4925000D02*
X21103000Y-4955000D01*
X21103000Y-4925000D02*
X21073000Y-4955000D01*
X21073000Y-5025000D02*
X21103000Y-5055000D01*
X21103000Y-5025000D02*
X21073000Y-5055000D01*
X21112524Y-7895000D02*
X21142524Y-7925000D01*
X21142524Y-7895000D02*
X21112524Y-7925000D01*
X21123000Y-8995000D02*
X21153000Y-9025000D01*
X21153000Y-8995000D02*
X21123000Y-9025000D01*
X21123000Y-9475000D02*
X21153000Y-9505000D01*
X21153000Y-9475000D02*
X21123000Y-9505000D01*
X21123000Y-9575000D02*
X21153000Y-9605000D01*
X21153000Y-9575000D02*
X21123000Y-9605000D01*
X21223000Y-9475000D02*
X21253000Y-9505000D01*
X21253000Y-9475000D02*
X21223000Y-9505000D01*
X21223000Y-9575000D02*
X21253000Y-9605000D01*
X21253000Y-9575000D02*
X21223000Y-9605000D01*
X21323000Y-4775000D02*
X21353000Y-4805000D01*
X21353000Y-4775000D02*
X21323000Y-4805000D01*
X21323000Y-5775000D02*
X21353000Y-5805000D01*
X21353000Y-5775000D02*
X21323000Y-5805000D01*
X21323000Y-6800000D02*
X21353000Y-6830000D01*
X21353000Y-6800000D02*
X21323000Y-6830000D01*
X21323000Y-7800000D02*
X21353000Y-7830000D01*
X21353000Y-7800000D02*
X21323000Y-7830000D01*
X21332500Y-8625000D02*
X21362500Y-8655000D01*
X21362500Y-8625000D02*
X21332500Y-8655000D01*
X21459500Y-9125000D02*
X21489500Y-9155000D01*
X21489500Y-9125000D02*
X21459500Y-9155000D01*
X21460500Y-8625000D02*
X21490500Y-8655000D01*
X21490500Y-8625000D02*
X21460500Y-8655000D01*
X21523000Y-8275000D02*
X21553000Y-8305000D01*
X21553000Y-8275000D02*
X21523000Y-8305000D01*
X21523000Y-8375000D02*
X21553000Y-8405000D01*
X21553000Y-8375000D02*
X21523000Y-8405000D01*
X21530500Y-4625069D02*
X21560500Y-4655069D01*
X21560500Y-4625069D02*
X21530500Y-4655069D01*
X21530500Y-5625069D02*
X21560500Y-5655069D01*
X21560500Y-5625069D02*
X21530500Y-5655069D01*
X21530500Y-6650069D02*
X21560500Y-6680069D01*
X21560500Y-6650069D02*
X21530500Y-6680069D01*
X21530500Y-7650069D02*
X21560500Y-7680069D01*
X21560500Y-7650069D02*
X21530500Y-7680069D01*
X21586500Y-8625000D02*
X21616500Y-8655000D01*
X21616500Y-8625000D02*
X21586500Y-8655000D01*
X21586500Y-9055000D02*
X21616500Y-9085000D01*
X21616500Y-9055000D02*
X21586500Y-9085000D01*
X21623000Y-8275000D02*
X21653000Y-8305000D01*
X21653000Y-8275000D02*
X21623000Y-8305000D01*
X21623000Y-8375000D02*
X21653000Y-8405000D01*
X21653000Y-8375000D02*
X21623000Y-8405000D01*
X21713000Y-8625000D02*
X21743000Y-8655000D01*
X21743000Y-8625000D02*
X21713000Y-8655000D01*
X21713500Y-8995000D02*
X21743500Y-9025000D01*
X21743500Y-8995000D02*
X21713500Y-9025000D01*
X21723000Y-8275000D02*
X21753000Y-8305000D01*
X21753000Y-8275000D02*
X21723000Y-8305000D01*
X21723000Y-8375000D02*
X21753000Y-8405000D01*
X21753000Y-8375000D02*
X21723000Y-8405000D01*
X21773000Y-4375000D02*
X21803000Y-4405000D01*
X21803000Y-4375000D02*
X21773000Y-4405000D01*
X21773000Y-4475000D02*
X21803000Y-4505000D01*
X21803000Y-4475000D02*
X21773000Y-4505000D01*
X21773000Y-4575000D02*
X21803000Y-4605000D01*
X21803000Y-4575000D02*
X21773000Y-4605000D01*
X21773000Y-4675000D02*
X21803000Y-4705000D01*
X21803000Y-4675000D02*
X21773000Y-4705000D01*
X21773000Y-4775000D02*
X21803000Y-4805000D01*
X21803000Y-4775000D02*
X21773000Y-4805000D01*
X21773000Y-4875000D02*
X21803000Y-4905000D01*
X21803000Y-4875000D02*
X21773000Y-4905000D01*
X21773000Y-4975000D02*
X21803000Y-5005000D01*
X21803000Y-4975000D02*
X21773000Y-5005000D01*
X21773000Y-5075000D02*
X21803000Y-5105000D01*
X21803000Y-5075000D02*
X21773000Y-5105000D01*
X21773000Y-5375000D02*
X21803000Y-5405000D01*
X21803000Y-5375000D02*
X21773000Y-5405000D01*
X21773000Y-5475000D02*
X21803000Y-5505000D01*
X21803000Y-5475000D02*
X21773000Y-5505000D01*
X21773000Y-5575000D02*
X21803000Y-5605000D01*
X21803000Y-5575000D02*
X21773000Y-5605000D01*
X21773000Y-5675000D02*
X21803000Y-5705000D01*
X21803000Y-5675000D02*
X21773000Y-5705000D01*
X21773000Y-5775000D02*
X21803000Y-5805000D01*
X21803000Y-5775000D02*
X21773000Y-5805000D01*
X21773000Y-5875000D02*
X21803000Y-5905000D01*
X21803000Y-5875000D02*
X21773000Y-5905000D01*
X21773000Y-5975000D02*
X21803000Y-6005000D01*
X21803000Y-5975000D02*
X21773000Y-6005000D01*
X21773000Y-6075000D02*
X21803000Y-6105000D01*
X21803000Y-6075000D02*
X21773000Y-6105000D01*
X21773000Y-6375000D02*
X21803000Y-6405000D01*
X21803000Y-6375000D02*
X21773000Y-6405000D01*
X21773000Y-6475000D02*
X21803000Y-6505000D01*
X21803000Y-6475000D02*
X21773000Y-6505000D01*
X21773000Y-6575000D02*
X21803000Y-6605000D01*
X21803000Y-6575000D02*
X21773000Y-6605000D01*
X21773000Y-6675000D02*
X21803000Y-6705000D01*
X21803000Y-6675000D02*
X21773000Y-6705000D01*
X21773000Y-6775000D02*
X21803000Y-6805000D01*
X21803000Y-6775000D02*
X21773000Y-6805000D01*
X21773000Y-6875000D02*
X21803000Y-6905000D01*
X21803000Y-6875000D02*
X21773000Y-6905000D01*
X21773000Y-6975000D02*
X21803000Y-7005000D01*
X21803000Y-6975000D02*
X21773000Y-7005000D01*
X21773000Y-7075000D02*
X21803000Y-7105000D01*
X21803000Y-7075000D02*
X21773000Y-7105000D01*
X21773000Y-7425000D02*
X21803000Y-7455000D01*
X21803000Y-7425000D02*
X21773000Y-7455000D01*
X21773000Y-7525000D02*
X21803000Y-7555000D01*
X21803000Y-7525000D02*
X21773000Y-7555000D01*
X21773000Y-7625000D02*
X21803000Y-7655000D01*
X21803000Y-7625000D02*
X21773000Y-7655000D01*
X21773000Y-7725000D02*
X21803000Y-7755000D01*
X21803000Y-7725000D02*
X21773000Y-7755000D01*
X21773000Y-7825000D02*
X21803000Y-7855000D01*
X21803000Y-7825000D02*
X21773000Y-7855000D01*
X21773000Y-7925000D02*
X21803000Y-7955000D01*
X21803000Y-7925000D02*
X21773000Y-7955000D01*
X21773000Y-8025000D02*
X21803000Y-8055000D01*
X21803000Y-8025000D02*
X21773000Y-8055000D01*
X21873000Y-4375000D02*
X21903000Y-4405000D01*
X21903000Y-4375000D02*
X21873000Y-4405000D01*
X21873000Y-4475000D02*
X21903000Y-4505000D01*
X21903000Y-4475000D02*
X21873000Y-4505000D01*
X21873000Y-4575000D02*
X21903000Y-4605000D01*
X21903000Y-4575000D02*
X21873000Y-4605000D01*
X21873000Y-4675000D02*
X21903000Y-4705000D01*
X21903000Y-4675000D02*
X21873000Y-4705000D01*
X21873000Y-4775000D02*
X21903000Y-4805000D01*
X21903000Y-4775000D02*
X21873000Y-4805000D01*
X21873000Y-4875000D02*
X21903000Y-4905000D01*
X21903000Y-4875000D02*
X21873000Y-4905000D01*
X21873000Y-4975000D02*
X21903000Y-5005000D01*
X21903000Y-4975000D02*
X21873000Y-5005000D01*
X21873000Y-5075000D02*
X21903000Y-5105000D01*
X21903000Y-5075000D02*
X21873000Y-5105000D01*
X21873000Y-5375000D02*
X21903000Y-5405000D01*
X21903000Y-5375000D02*
X21873000Y-5405000D01*
X21873000Y-5475000D02*
X21903000Y-5505000D01*
X21903000Y-5475000D02*
X21873000Y-5505000D01*
X21873000Y-5575000D02*
X21903000Y-5605000D01*
X21903000Y-5575000D02*
X21873000Y-5605000D01*
X21873000Y-5675000D02*
X21903000Y-5705000D01*
X21903000Y-5675000D02*
X21873000Y-5705000D01*
X21873000Y-5775000D02*
X21903000Y-5805000D01*
X21903000Y-5775000D02*
X21873000Y-5805000D01*
X21873000Y-5875000D02*
X21903000Y-5905000D01*
X21903000Y-5875000D02*
X21873000Y-5905000D01*
X21873000Y-5975000D02*
X21903000Y-6005000D01*
X21903000Y-5975000D02*
X21873000Y-6005000D01*
X21873000Y-6075000D02*
X21903000Y-6105000D01*
X21903000Y-6075000D02*
X21873000Y-6105000D01*
X21873000Y-6375000D02*
X21903000Y-6405000D01*
X21903000Y-6375000D02*
X21873000Y-6405000D01*
X21873000Y-6475000D02*
X21903000Y-6505000D01*
X21903000Y-6475000D02*
X21873000Y-6505000D01*
X21873000Y-6575000D02*
X21903000Y-6605000D01*
X21903000Y-6575000D02*
X21873000Y-6605000D01*
X21873000Y-6675000D02*
X21903000Y-6705000D01*
X21903000Y-6675000D02*
X21873000Y-6705000D01*
X21873000Y-6775000D02*
X21903000Y-6805000D01*
X21903000Y-6775000D02*
X21873000Y-6805000D01*
X21873000Y-6875000D02*
X21903000Y-6905000D01*
X21903000Y-6875000D02*
X21873000Y-6905000D01*
X21873000Y-6975000D02*
X21903000Y-7005000D01*
X21903000Y-6975000D02*
X21873000Y-7005000D01*
X21873000Y-7075000D02*
X21903000Y-7105000D01*
X21903000Y-7075000D02*
X21873000Y-7105000D01*
X21873000Y-7425000D02*
X21903000Y-7455000D01*
X21903000Y-7425000D02*
X21873000Y-7455000D01*
X21873000Y-7525000D02*
X21903000Y-7555000D01*
X21903000Y-7525000D02*
X21873000Y-7555000D01*
X21873000Y-7625000D02*
X21903000Y-7655000D01*
X21903000Y-7625000D02*
X21873000Y-7655000D01*
X21873000Y-7725000D02*
X21903000Y-7755000D01*
X21903000Y-7725000D02*
X21873000Y-7755000D01*
X21873000Y-7825000D02*
X21903000Y-7855000D01*
X21903000Y-7825000D02*
X21873000Y-7855000D01*
X21873000Y-7925000D02*
X21903000Y-7955000D01*
X21903000Y-7925000D02*
X21873000Y-7955000D01*
X21873000Y-8025000D02*
X21903000Y-8055000D01*
X21903000Y-8025000D02*
X21873000Y-8055000D01*
X19647939Y-8890000D02*
G75*
G02*
X19617939Y-8890000I-15000J0D01*
G01*
X19617939Y-8890000D02*
G75*
G02*
X19647939Y-8890000I15000J0D01*
G01*
X19750470Y-8787470D02*
G75*
G02*
X19720470Y-8787470I-15000J0D01*
G01*
X19720470Y-8787470D02*
G75*
G02*
X19750470Y-8787470I15000J0D01*
G01*
X19750470Y-8992531D02*
G75*
G02*
X19720470Y-8992531I-15000J0D01*
G01*
X19720470Y-8992531D02*
G75*
G02*
X19750470Y-8992531I15000J0D01*
G01*
X19853000Y-8684939D02*
G75*
G02*
X19823000Y-8684939I-15000J0D01*
G01*
X19823000Y-8684939D02*
G75*
G02*
X19853000Y-8684939I15000J0D01*
G01*
X19853000Y-8890000D02*
G75*
G02*
X19823000Y-8890000I-15000J0D01*
G01*
X19823000Y-8890000D02*
G75*
G02*
X19853000Y-8890000I15000J0D01*
G01*
X19853000Y-9095061D02*
G75*
G02*
X19823000Y-9095061I-15000J0D01*
G01*
X19823000Y-9095061D02*
G75*
G02*
X19853000Y-9095061I15000J0D01*
G01*
X19955531Y-8787470D02*
G75*
G02*
X19925531Y-8787470I-15000J0D01*
G01*
X19925531Y-8787470D02*
G75*
G02*
X19955531Y-8787470I15000J0D01*
G01*
X19955531Y-8992531D02*
G75*
G02*
X19925531Y-8992531I-15000J0D01*
G01*
X19925531Y-8992531D02*
G75*
G02*
X19955531Y-8992531I15000J0D01*
G01*
X20058061Y-8890000D02*
G75*
G02*
X20028061Y-8890000I-15000J0D01*
G01*
X20028061Y-8890000D02*
G75*
G02*
X20058061Y-8890000I15000J0D01*
G01*
X19406000Y-12627000D02*
X19406000Y-12687000D01*
X19376000Y-12657000D02*
X19436000Y-12657000D01*
X19376000Y-12602000D02*
X19376000Y-12712000D01*
X19436000Y-12712000D02*
G75*
G02*
X19376000Y-12712000I-30000J0D01*
G01*
X19436000Y-12712000D02*
X19436000Y-12602000D01*
X19436000Y-12602000D02*
G75*
G03*
X19376000Y-12602000I-30000J0D01*
G01*
X19406000Y-13045000D02*
X19406000Y-13105000D01*
X19376000Y-13075000D02*
X19436000Y-13075000D01*
X19376000Y-13035000D02*
X19376000Y-13115000D01*
X19436000Y-13115000D02*
G75*
G02*
X19376000Y-13115000I-30000J0D01*
G01*
X19436000Y-13115000D02*
X19436000Y-13035000D01*
X19436000Y-13035000D02*
G75*
G03*
X19376000Y-13035000I-30000J0D01*
G01*
X20270000Y-12627000D02*
X20270000Y-12687000D01*
X20240000Y-12657000D02*
X20300000Y-12657000D01*
X20240000Y-12602000D02*
X20240000Y-12712000D01*
X20300000Y-12712000D02*
G75*
G02*
X20240000Y-12712000I-30000J0D01*
G01*
X20300000Y-12712000D02*
X20300000Y-12602000D01*
X20300000Y-12602000D02*
G75*
G03*
X20240000Y-12602000I-30000J0D01*
G01*
X20270000Y-13045000D02*
X20270000Y-13105000D01*
X20240000Y-13075000D02*
X20300000Y-13075000D01*
X20240000Y-13035000D02*
X20240000Y-13115000D01*
X20300000Y-13115000D02*
G75*
G02*
X20240000Y-13115000I-30000J0D01*
G01*
X20300000Y-13115000D02*
X20300000Y-13035000D01*
X20300000Y-13035000D02*
G75*
G03*
X20240000Y-13035000I-30000J0D01*
G01*
X18857356Y-12608356D02*
X18857356Y-12537644D01*
X18786644Y-12537644D01*
X18786644Y-12608356D01*
X18857356Y-12608356D01*
X18857356Y-12862356D02*
X18857356Y-12791644D01*
X18786644Y-12791644D01*
X18786644Y-12862356D01*
X18857356Y-12862356D01*
X18857356Y-13116356D02*
X18857356Y-13045644D01*
X18786644Y-13045644D01*
X18786644Y-13116356D01*
X18857356Y-13116356D01*
X19111356Y-12608356D02*
X19111356Y-12537644D01*
X19040644Y-12537644D01*
X19040644Y-12608356D01*
X19111356Y-12608356D01*
X19111356Y-12862356D02*
X19111356Y-12791644D01*
X19040644Y-12791644D01*
X19040644Y-12862356D01*
X19111356Y-12862356D01*
X19111356Y-13116356D02*
X19111356Y-13045644D01*
X19040644Y-13045644D01*
X19040644Y-13116356D01*
X19111356Y-13116356D01*
X20635356Y-12608356D02*
X20635356Y-12537644D01*
X20564644Y-12537644D01*
X20564644Y-12608356D01*
X20635356Y-12608356D01*
X20635356Y-12862356D02*
X20635356Y-12791644D01*
X20564644Y-12791644D01*
X20564644Y-12862356D01*
X20635356Y-12862356D01*
X20635356Y-13116356D02*
X20635356Y-13045644D01*
X20564644Y-13045644D01*
X20564644Y-13116356D01*
X20635356Y-13116356D01*
X20889356Y-12608356D02*
X20889356Y-12537644D01*
X20818644Y-12537644D01*
X20818644Y-12608356D01*
X20889356Y-12608356D01*
X20889356Y-12862356D02*
X20889356Y-12791644D01*
X20818644Y-12791644D01*
X20818644Y-12862356D01*
X20889356Y-12862356D01*
X20889356Y-13116356D02*
X20889356Y-13045644D01*
X20818644Y-13045644D01*
X20818644Y-13116356D01*
X20889356Y-13116356D01*
D12*
X18084000Y-4510000D02*
X18149000Y-4445000D01*
X18084000Y-4380000D01*
X18019000Y-4445000D01*
X18084000Y-4510000D01*
X18084000Y-5018000D02*
X18149000Y-4953000D01*
X18084000Y-4888000D01*
X18019000Y-4953000D01*
X18084000Y-5018000D01*
X18084000Y-5526000D02*
X18149000Y-5461000D01*
X18084000Y-5396000D01*
X18019000Y-5461000D01*
X18084000Y-5526000D01*
X18084000Y-6034000D02*
X18149000Y-5969000D01*
X18084000Y-5904000D01*
X18019000Y-5969000D01*
X18084000Y-6034000D01*
X18084000Y-6542000D02*
X18149000Y-6477000D01*
X18084000Y-6412000D01*
X18019000Y-6477000D01*
X18084000Y-6542000D01*
X18084000Y-7050000D02*
X18149000Y-6985000D01*
X18084000Y-6920000D01*
X18019000Y-6985000D01*
X18084000Y-7050000D01*
X18084000Y-7558000D02*
X18149000Y-7493000D01*
X18084000Y-7428000D01*
X18019000Y-7493000D01*
X18084000Y-7558000D01*
X18084000Y-8066000D02*
X18149000Y-8001000D01*
X18084000Y-7936000D01*
X18019000Y-8001000D01*
X18084000Y-8066000D01*
X18084000Y-9844000D02*
X18149000Y-9779000D01*
X18084000Y-9714000D01*
X18019000Y-9779000D01*
X18084000Y-9844000D01*
X18084000Y-10352000D02*
X18149000Y-10287000D01*
X18084000Y-10222000D01*
X18019000Y-10287000D01*
X18084000Y-10352000D01*
X18084000Y-10860000D02*
X18149000Y-10795000D01*
X18084000Y-10730000D01*
X18019000Y-10795000D01*
X18084000Y-10860000D01*
X18084000Y-11368000D02*
X18149000Y-11303000D01*
X18084000Y-11238000D01*
X18019000Y-11303000D01*
X18084000Y-11368000D01*
X18084000Y-11876000D02*
X18149000Y-11811000D01*
X18084000Y-11746000D01*
X18019000Y-11811000D01*
X18084000Y-11876000D01*
X18084000Y-12384000D02*
X18149000Y-12319000D01*
X18084000Y-12254000D01*
X18019000Y-12319000D01*
X18084000Y-12384000D01*
X21590000Y-4510000D02*
X21655000Y-4445000D01*
X21590000Y-4380000D01*
X21525000Y-4445000D01*
X21590000Y-4510000D01*
X21590000Y-5018000D02*
X21655000Y-4953000D01*
X21590000Y-4888000D01*
X21525000Y-4953000D01*
X21590000Y-5018000D01*
X21590000Y-5526000D02*
X21655000Y-5461000D01*
X21590000Y-5396000D01*
X21525000Y-5461000D01*
X21590000Y-5526000D01*
X21590000Y-6034000D02*
X21655000Y-5969000D01*
X21590000Y-5904000D01*
X21525000Y-5969000D01*
X21590000Y-6034000D01*
X21590000Y-6542000D02*
X21655000Y-6477000D01*
X21590000Y-6412000D01*
X21525000Y-6477000D01*
X21590000Y-6542000D01*
X21590000Y-7050000D02*
X21655000Y-6985000D01*
X21590000Y-6920000D01*
X21525000Y-6985000D01*
X21590000Y-7050000D01*
X21590000Y-7558000D02*
X21655000Y-7493000D01*
X21590000Y-7428000D01*
X21525000Y-7493000D01*
X21590000Y-7558000D01*
X21590000Y-8066000D02*
X21655000Y-8001000D01*
X21590000Y-7936000D01*
X21525000Y-8001000D01*
X21590000Y-8066000D01*
X21590000Y-9844000D02*
X21655000Y-9779000D01*
X21590000Y-9714000D01*
X21525000Y-9779000D01*
X21590000Y-9844000D01*
X21590000Y-10352000D02*
X21655000Y-10287000D01*
X21590000Y-10222000D01*
X21525000Y-10287000D01*
X21590000Y-10352000D01*
X21590000Y-10860000D02*
X21655000Y-10795000D01*
X21590000Y-10730000D01*
X21525000Y-10795000D01*
X21590000Y-10860000D01*
X21590000Y-11368000D02*
X21655000Y-11303000D01*
X21590000Y-11238000D01*
X21525000Y-11303000D01*
X21590000Y-11368000D01*
X21590000Y-11876000D02*
X21655000Y-11811000D01*
X21590000Y-11746000D01*
X21525000Y-11811000D01*
X21590000Y-11876000D01*
X21590000Y-12384000D02*
X21655000Y-12319000D01*
X21590000Y-12254000D01*
X21525000Y-12319000D01*
X21590000Y-12384000D01*
D10*
X17929777Y-13656484D02*
X17929777Y-13456484D01*
X17929777Y-13456484D02*
X17977396Y-13456484D01*
X17977396Y-13456484D02*
X18005967Y-13466008D01*
X18005967Y-13466008D02*
X18025015Y-13485055D01*
X18025015Y-13485055D02*
X18034539Y-13504103D01*
X18034539Y-13504103D02*
X18044063Y-13542198D01*
X18044063Y-13542198D02*
X18044063Y-13570769D01*
X18044063Y-13570769D02*
X18034539Y-13608865D01*
X18034539Y-13608865D02*
X18025015Y-13627912D01*
X18025015Y-13627912D02*
X18005967Y-13646960D01*
X18005967Y-13646960D02*
X17977396Y-13656484D01*
X17977396Y-13656484D02*
X17929777Y-13656484D01*
X18129777Y-13656484D02*
X18129777Y-13523150D01*
X18129777Y-13561246D02*
X18139301Y-13542198D01*
X18139301Y-13542198D02*
X18148824Y-13532674D01*
X18148824Y-13532674D02*
X18167872Y-13523150D01*
X18167872Y-13523150D02*
X18186920Y-13523150D01*
X18253586Y-13656484D02*
X18253586Y-13523150D01*
X18253586Y-13456484D02*
X18244063Y-13466008D01*
X18244063Y-13466008D02*
X18253586Y-13475531D01*
X18253586Y-13475531D02*
X18263110Y-13466008D01*
X18263110Y-13466008D02*
X18253586Y-13456484D01*
X18253586Y-13456484D02*
X18253586Y-13475531D01*
X18377396Y-13656484D02*
X18358348Y-13646960D01*
X18358348Y-13646960D02*
X18348824Y-13627912D01*
X18348824Y-13627912D02*
X18348824Y-13456484D01*
X18482158Y-13656484D02*
X18463110Y-13646960D01*
X18463110Y-13646960D02*
X18453586Y-13627912D01*
X18453586Y-13627912D02*
X18453586Y-13456484D01*
X18710729Y-13656484D02*
X18710729Y-13456484D01*
X18710729Y-13456484D02*
X18777396Y-13599341D01*
X18777396Y-13599341D02*
X18844063Y-13456484D01*
X18844063Y-13456484D02*
X18844063Y-13656484D01*
X19025015Y-13656484D02*
X19025015Y-13551722D01*
X19025015Y-13551722D02*
X19015491Y-13532674D01*
X19015491Y-13532674D02*
X18996444Y-13523150D01*
X18996444Y-13523150D02*
X18958348Y-13523150D01*
X18958348Y-13523150D02*
X18939301Y-13532674D01*
X19025015Y-13646960D02*
X19005967Y-13656484D01*
X19005967Y-13656484D02*
X18958348Y-13656484D01*
X18958348Y-13656484D02*
X18939301Y-13646960D01*
X18939301Y-13646960D02*
X18929777Y-13627912D01*
X18929777Y-13627912D02*
X18929777Y-13608865D01*
X18929777Y-13608865D02*
X18939301Y-13589817D01*
X18939301Y-13589817D02*
X18958348Y-13580293D01*
X18958348Y-13580293D02*
X19005967Y-13580293D01*
X19005967Y-13580293D02*
X19025015Y-13570769D01*
X19120253Y-13523150D02*
X19120253Y-13723150D01*
X19120253Y-13532674D02*
X19139301Y-13523150D01*
X19139301Y-13523150D02*
X19177396Y-13523150D01*
X19177396Y-13523150D02*
X19196444Y-13532674D01*
X19196444Y-13532674D02*
X19205967Y-13542198D01*
X19205967Y-13542198D02*
X19215491Y-13561246D01*
X19215491Y-13561246D02*
X19215491Y-13618388D01*
X19215491Y-13618388D02*
X19205967Y-13637436D01*
X19205967Y-13637436D02*
X19196444Y-13646960D01*
X19196444Y-13646960D02*
X19177396Y-13656484D01*
X19177396Y-13656484D02*
X19139301Y-13656484D01*
X19139301Y-13656484D02*
X19120253Y-13646960D01*
X19301205Y-13637436D02*
X19310729Y-13646960D01*
X19310729Y-13646960D02*
X19301205Y-13656484D01*
X19301205Y-13656484D02*
X19291682Y-13646960D01*
X19291682Y-13646960D02*
X19301205Y-13637436D01*
X19301205Y-13637436D02*
X19301205Y-13656484D01*
X19301205Y-13532674D02*
X19310729Y-13542198D01*
X19310729Y-13542198D02*
X19301205Y-13551722D01*
X19301205Y-13551722D02*
X19291682Y-13542198D01*
X19291682Y-13542198D02*
X19301205Y-13532674D01*
X19301205Y-13532674D02*
X19301205Y-13551722D01*
D11*
X17639000Y-13970000D02*
X17669000Y-14000000D01*
X17669000Y-13970000D02*
X17639000Y-14000000D01*
D10*
X17967872Y-13876484D02*
X17986920Y-13876484D01*
X17986920Y-13876484D02*
X18005967Y-13886008D01*
X18005967Y-13886008D02*
X18015491Y-13895531D01*
X18015491Y-13895531D02*
X18025015Y-13914579D01*
X18025015Y-13914579D02*
X18034539Y-13952674D01*
X18034539Y-13952674D02*
X18034539Y-14000293D01*
X18034539Y-14000293D02*
X18025015Y-14038388D01*
X18025015Y-14038388D02*
X18015491Y-14057436D01*
X18015491Y-14057436D02*
X18005967Y-14066960D01*
X18005967Y-14066960D02*
X17986920Y-14076484D01*
X17986920Y-14076484D02*
X17967872Y-14076484D01*
X17967872Y-14076484D02*
X17948824Y-14066960D01*
X17948824Y-14066960D02*
X17939301Y-14057436D01*
X17939301Y-14057436D02*
X17929777Y-14038388D01*
X17929777Y-14038388D02*
X17920253Y-14000293D01*
X17920253Y-14000293D02*
X17920253Y-13952674D01*
X17920253Y-13952674D02*
X17929777Y-13914579D01*
X17929777Y-13914579D02*
X17939301Y-13895531D01*
X17939301Y-13895531D02*
X17948824Y-13886008D01*
X17948824Y-13886008D02*
X17967872Y-13876484D01*
X18120253Y-14057436D02*
X18129777Y-14066960D01*
X18129777Y-14066960D02*
X18120253Y-14076484D01*
X18120253Y-14076484D02*
X18110729Y-14066960D01*
X18110729Y-14066960D02*
X18120253Y-14057436D01*
X18120253Y-14057436D02*
X18120253Y-14076484D01*
X18196444Y-13876484D02*
X18320253Y-13876484D01*
X18320253Y-13876484D02*
X18253586Y-13952674D01*
X18253586Y-13952674D02*
X18282158Y-13952674D01*
X18282158Y-13952674D02*
X18301205Y-13962198D01*
X18301205Y-13962198D02*
X18310729Y-13971722D01*
X18310729Y-13971722D02*
X18320253Y-13990769D01*
X18320253Y-13990769D02*
X18320253Y-14038388D01*
X18320253Y-14038388D02*
X18310729Y-14057436D01*
X18310729Y-14057436D02*
X18301205Y-14066960D01*
X18301205Y-14066960D02*
X18282158Y-14076484D01*
X18282158Y-14076484D02*
X18225015Y-14076484D01*
X18225015Y-14076484D02*
X18205967Y-14066960D01*
X18205967Y-14066960D02*
X18196444Y-14057436D01*
X18444063Y-13876484D02*
X18463110Y-13876484D01*
X18463110Y-13876484D02*
X18482158Y-13886008D01*
X18482158Y-13886008D02*
X18491682Y-13895531D01*
X18491682Y-13895531D02*
X18501205Y-13914579D01*
X18501205Y-13914579D02*
X18510729Y-13952674D01*
X18510729Y-13952674D02*
X18510729Y-14000293D01*
X18510729Y-14000293D02*
X18501205Y-14038388D01*
X18501205Y-14038388D02*
X18491682Y-14057436D01*
X18491682Y-14057436D02*
X18482158Y-14066960D01*
X18482158Y-14066960D02*
X18463110Y-14076484D01*
X18463110Y-14076484D02*
X18444063Y-14076484D01*
X18444063Y-14076484D02*
X18425015Y-14066960D01*
X18425015Y-14066960D02*
X18415491Y-14057436D01*
X18415491Y-14057436D02*
X18405967Y-14038388D01*
X18405967Y-14038388D02*
X18396444Y-14000293D01*
X18396444Y-14000293D02*
X18396444Y-13952674D01*
X18396444Y-13952674D02*
X18405967Y-13914579D01*
X18405967Y-13914579D02*
X18415491Y-13895531D01*
X18415491Y-13895531D02*
X18425015Y-13886008D01*
X18425015Y-13886008D02*
X18444063Y-13876484D01*
X18634539Y-13876484D02*
X18653586Y-13876484D01*
X18653586Y-13876484D02*
X18672634Y-13886008D01*
X18672634Y-13886008D02*
X18682158Y-13895531D01*
X18682158Y-13895531D02*
X18691682Y-13914579D01*
X18691682Y-13914579D02*
X18701205Y-13952674D01*
X18701205Y-13952674D02*
X18701205Y-14000293D01*
X18701205Y-14000293D02*
X18691682Y-14038388D01*
X18691682Y-14038388D02*
X18682158Y-14057436D01*
X18682158Y-14057436D02*
X18672634Y-14066960D01*
X18672634Y-14066960D02*
X18653586Y-14076484D01*
X18653586Y-14076484D02*
X18634539Y-14076484D01*
X18634539Y-14076484D02*
X18615491Y-14066960D01*
X18615491Y-14066960D02*
X18605967Y-14057436D01*
X18605967Y-14057436D02*
X18596444Y-14038388D01*
X18596444Y-14038388D02*
X18586920Y-14000293D01*
X18586920Y-14000293D02*
X18586920Y-13952674D01*
X18586920Y-13952674D02*
X18596444Y-13914579D01*
X18596444Y-13914579D02*
X18605967Y-13895531D01*
X18605967Y-13895531D02*
X18615491Y-13886008D01*
X18615491Y-13886008D02*
X18634539Y-13876484D01*
X18786920Y-14076484D02*
X18786920Y-13943150D01*
X18786920Y-13962198D02*
X18796444Y-13952674D01*
X18796444Y-13952674D02*
X18815491Y-13943150D01*
X18815491Y-13943150D02*
X18844063Y-13943150D01*
X18844063Y-13943150D02*
X18863110Y-13952674D01*
X18863110Y-13952674D02*
X18872634Y-13971722D01*
X18872634Y-13971722D02*
X18872634Y-14076484D01*
X18872634Y-13971722D02*
X18882158Y-13952674D01*
X18882158Y-13952674D02*
X18901205Y-13943150D01*
X18901205Y-13943150D02*
X18929777Y-13943150D01*
X18929777Y-13943150D02*
X18948825Y-13952674D01*
X18948825Y-13952674D02*
X18958348Y-13971722D01*
X18958348Y-13971722D02*
X18958348Y-14076484D01*
X19053586Y-14076484D02*
X19053586Y-13943150D01*
X19053586Y-13962198D02*
X19063110Y-13952674D01*
X19063110Y-13952674D02*
X19082158Y-13943150D01*
X19082158Y-13943150D02*
X19110729Y-13943150D01*
X19110729Y-13943150D02*
X19129777Y-13952674D01*
X19129777Y-13952674D02*
X19139301Y-13971722D01*
X19139301Y-13971722D02*
X19139301Y-14076484D01*
X19139301Y-13971722D02*
X19148825Y-13952674D01*
X19148825Y-13952674D02*
X19167872Y-13943150D01*
X19167872Y-13943150D02*
X19196444Y-13943150D01*
X19196444Y-13943150D02*
X19215491Y-13952674D01*
X19215491Y-13952674D02*
X19225015Y-13971722D01*
X19225015Y-13971722D02*
X19225015Y-14076484D01*
X19615491Y-13866960D02*
X19444063Y-14124103D01*
X19872634Y-13876484D02*
X19891682Y-13876484D01*
X19891682Y-13876484D02*
X19910729Y-13886008D01*
X19910729Y-13886008D02*
X19920253Y-13895531D01*
X19920253Y-13895531D02*
X19929777Y-13914579D01*
X19929777Y-13914579D02*
X19939301Y-13952674D01*
X19939301Y-13952674D02*
X19939301Y-14000293D01*
X19939301Y-14000293D02*
X19929777Y-14038388D01*
X19929777Y-14038388D02*
X19920253Y-14057436D01*
X19920253Y-14057436D02*
X19910729Y-14066960D01*
X19910729Y-14066960D02*
X19891682Y-14076484D01*
X19891682Y-14076484D02*
X19872634Y-14076484D01*
X19872634Y-14076484D02*
X19853587Y-14066960D01*
X19853587Y-14066960D02*
X19844063Y-14057436D01*
X19844063Y-14057436D02*
X19834539Y-14038388D01*
X19834539Y-14038388D02*
X19825015Y-14000293D01*
X19825015Y-14000293D02*
X19825015Y-13952674D01*
X19825015Y-13952674D02*
X19834539Y-13914579D01*
X19834539Y-13914579D02*
X19844063Y-13895531D01*
X19844063Y-13895531D02*
X19853587Y-13886008D01*
X19853587Y-13886008D02*
X19872634Y-13876484D01*
X20025015Y-14057436D02*
X20034539Y-14066960D01*
X20034539Y-14066960D02*
X20025015Y-14076484D01*
X20025015Y-14076484D02*
X20015491Y-14066960D01*
X20015491Y-14066960D02*
X20025015Y-14057436D01*
X20025015Y-14057436D02*
X20025015Y-14076484D01*
X20158348Y-13876484D02*
X20177396Y-13876484D01*
X20177396Y-13876484D02*
X20196444Y-13886008D01*
X20196444Y-13886008D02*
X20205968Y-13895531D01*
X20205968Y-13895531D02*
X20215491Y-13914579D01*
X20215491Y-13914579D02*
X20225015Y-13952674D01*
X20225015Y-13952674D02*
X20225015Y-14000293D01*
X20225015Y-14000293D02*
X20215491Y-14038388D01*
X20215491Y-14038388D02*
X20205968Y-14057436D01*
X20205968Y-14057436D02*
X20196444Y-14066960D01*
X20196444Y-14066960D02*
X20177396Y-14076484D01*
X20177396Y-14076484D02*
X20158348Y-14076484D01*
X20158348Y-14076484D02*
X20139301Y-14066960D01*
X20139301Y-14066960D02*
X20129777Y-14057436D01*
X20129777Y-14057436D02*
X20120253Y-14038388D01*
X20120253Y-14038388D02*
X20110729Y-14000293D01*
X20110729Y-14000293D02*
X20110729Y-13952674D01*
X20110729Y-13952674D02*
X20120253Y-13914579D01*
X20120253Y-13914579D02*
X20129777Y-13895531D01*
X20129777Y-13895531D02*
X20139301Y-13886008D01*
X20139301Y-13886008D02*
X20158348Y-13876484D01*
X20415491Y-14076484D02*
X20301206Y-14076484D01*
X20358348Y-14076484D02*
X20358348Y-13876484D01*
X20358348Y-13876484D02*
X20339301Y-13905055D01*
X20339301Y-13905055D02*
X20320253Y-13924103D01*
X20320253Y-13924103D02*
X20301206Y-13933627D01*
X20605968Y-14076484D02*
X20491682Y-14076484D01*
X20548825Y-14076484D02*
X20548825Y-13876484D01*
X20548825Y-13876484D02*
X20529777Y-13905055D01*
X20529777Y-13905055D02*
X20510729Y-13924103D01*
X20510729Y-13924103D02*
X20491682Y-13933627D01*
X20720253Y-13962198D02*
X20701206Y-13952674D01*
X20701206Y-13952674D02*
X20691682Y-13943150D01*
X20691682Y-13943150D02*
X20682158Y-13924103D01*
X20682158Y-13924103D02*
X20682158Y-13914579D01*
X20682158Y-13914579D02*
X20691682Y-13895531D01*
X20691682Y-13895531D02*
X20701206Y-13886008D01*
X20701206Y-13886008D02*
X20720253Y-13876484D01*
X20720253Y-13876484D02*
X20758349Y-13876484D01*
X20758349Y-13876484D02*
X20777396Y-13886008D01*
X20777396Y-13886008D02*
X20786920Y-13895531D01*
X20786920Y-13895531D02*
X20796444Y-13914579D01*
X20796444Y-13914579D02*
X20796444Y-13924103D01*
X20796444Y-13924103D02*
X20786920Y-13943150D01*
X20786920Y-13943150D02*
X20777396Y-13952674D01*
X20777396Y-13952674D02*
X20758349Y-13962198D01*
X20758349Y-13962198D02*
X20720253Y-13962198D01*
X20720253Y-13962198D02*
X20701206Y-13971722D01*
X20701206Y-13971722D02*
X20691682Y-13981246D01*
X20691682Y-13981246D02*
X20682158Y-14000293D01*
X20682158Y-14000293D02*
X20682158Y-14038388D01*
X20682158Y-14038388D02*
X20691682Y-14057436D01*
X20691682Y-14057436D02*
X20701206Y-14066960D01*
X20701206Y-14066960D02*
X20720253Y-14076484D01*
X20720253Y-14076484D02*
X20758349Y-14076484D01*
X20758349Y-14076484D02*
X20777396Y-14066960D01*
X20777396Y-14066960D02*
X20786920Y-14057436D01*
X20786920Y-14057436D02*
X20796444Y-14038388D01*
X20796444Y-14038388D02*
X20796444Y-14000293D01*
X20796444Y-14000293D02*
X20786920Y-13981246D01*
X20786920Y-13981246D02*
X20777396Y-13971722D01*
X20777396Y-13971722D02*
X20758349Y-13962198D01*
X20872634Y-13876484D02*
X20872634Y-13914579D01*
X20948825Y-13876484D02*
X20948825Y-13914579D01*
X21244063Y-14152674D02*
X21234539Y-14143150D01*
X21234539Y-14143150D02*
X21215491Y-14114579D01*
X21215491Y-14114579D02*
X21205968Y-14095531D01*
X21205968Y-14095531D02*
X21196444Y-14066960D01*
X21196444Y-14066960D02*
X21186920Y-14019341D01*
X21186920Y-14019341D02*
X21186920Y-13981246D01*
X21186920Y-13981246D02*
X21196444Y-13933627D01*
X21196444Y-13933627D02*
X21205968Y-13905055D01*
X21205968Y-13905055D02*
X21215491Y-13886008D01*
X21215491Y-13886008D02*
X21234539Y-13857436D01*
X21234539Y-13857436D02*
X21244063Y-13847912D01*
X21301206Y-13876484D02*
X21425015Y-13876484D01*
X21425015Y-13876484D02*
X21358349Y-13952674D01*
X21358349Y-13952674D02*
X21386920Y-13952674D01*
X21386920Y-13952674D02*
X21405968Y-13962198D01*
X21405968Y-13962198D02*
X21415491Y-13971722D01*
X21415491Y-13971722D02*
X21425015Y-13990769D01*
X21425015Y-13990769D02*
X21425015Y-14038388D01*
X21425015Y-14038388D02*
X21415491Y-14057436D01*
X21415491Y-14057436D02*
X21405968Y-14066960D01*
X21405968Y-14066960D02*
X21386920Y-14076484D01*
X21386920Y-14076484D02*
X21329777Y-14076484D01*
X21329777Y-14076484D02*
X21310730Y-14066960D01*
X21310730Y-14066960D02*
X21301206Y-14057436D01*
X21491682Y-13876484D02*
X21625015Y-13876484D01*
X21625015Y-13876484D02*
X21539301Y-14076484D01*
X21796444Y-13876484D02*
X21701206Y-13876484D01*
X21701206Y-13876484D02*
X21691682Y-13971722D01*
X21691682Y-13971722D02*
X21701206Y-13962198D01*
X21701206Y-13962198D02*
X21720253Y-13952674D01*
X21720253Y-13952674D02*
X21767872Y-13952674D01*
X21767872Y-13952674D02*
X21786920Y-13962198D01*
X21786920Y-13962198D02*
X21796444Y-13971722D01*
X21796444Y-13971722D02*
X21805968Y-13990769D01*
X21805968Y-13990769D02*
X21805968Y-14038388D01*
X21805968Y-14038388D02*
X21796444Y-14057436D01*
X21796444Y-14057436D02*
X21786920Y-14066960D01*
X21786920Y-14066960D02*
X21767872Y-14076484D01*
X21767872Y-14076484D02*
X21720253Y-14076484D01*
X21720253Y-14076484D02*
X21701206Y-14066960D01*
X21701206Y-14066960D02*
X21691682Y-14057436D01*
X22044063Y-14076484D02*
X22044063Y-13876484D01*
X22129777Y-14076484D02*
X22129777Y-13971722D01*
X22129777Y-13971722D02*
X22120253Y-13952674D01*
X22120253Y-13952674D02*
X22101206Y-13943150D01*
X22101206Y-13943150D02*
X22072634Y-13943150D01*
X22072634Y-13943150D02*
X22053587Y-13952674D01*
X22053587Y-13952674D02*
X22044063Y-13962198D01*
X22253587Y-14076484D02*
X22234539Y-14066960D01*
X22234539Y-14066960D02*
X22225015Y-14057436D01*
X22225015Y-14057436D02*
X22215492Y-14038388D01*
X22215492Y-14038388D02*
X22215492Y-13981246D01*
X22215492Y-13981246D02*
X22225015Y-13962198D01*
X22225015Y-13962198D02*
X22234539Y-13952674D01*
X22234539Y-13952674D02*
X22253587Y-13943150D01*
X22253587Y-13943150D02*
X22282158Y-13943150D01*
X22282158Y-13943150D02*
X22301206Y-13952674D01*
X22301206Y-13952674D02*
X22310730Y-13962198D01*
X22310730Y-13962198D02*
X22320253Y-13981246D01*
X22320253Y-13981246D02*
X22320253Y-14038388D01*
X22320253Y-14038388D02*
X22310730Y-14057436D01*
X22310730Y-14057436D02*
X22301206Y-14066960D01*
X22301206Y-14066960D02*
X22282158Y-14076484D01*
X22282158Y-14076484D02*
X22253587Y-14076484D01*
X22434539Y-14076484D02*
X22415491Y-14066960D01*
X22415491Y-14066960D02*
X22405968Y-14047912D01*
X22405968Y-14047912D02*
X22405968Y-13876484D01*
X22586920Y-14066960D02*
X22567872Y-14076484D01*
X22567872Y-14076484D02*
X22529777Y-14076484D01*
X22529777Y-14076484D02*
X22510730Y-14066960D01*
X22510730Y-14066960D02*
X22501206Y-14047912D01*
X22501206Y-14047912D02*
X22501206Y-13971722D01*
X22501206Y-13971722D02*
X22510730Y-13952674D01*
X22510730Y-13952674D02*
X22529777Y-13943150D01*
X22529777Y-13943150D02*
X22567872Y-13943150D01*
X22567872Y-13943150D02*
X22586920Y-13952674D01*
X22586920Y-13952674D02*
X22596444Y-13971722D01*
X22596444Y-13971722D02*
X22596444Y-13990769D01*
X22596444Y-13990769D02*
X22501206Y-14009817D01*
X22672634Y-14066960D02*
X22691682Y-14076484D01*
X22691682Y-14076484D02*
X22729777Y-14076484D01*
X22729777Y-14076484D02*
X22748825Y-14066960D01*
X22748825Y-14066960D02*
X22758349Y-14047912D01*
X22758349Y-14047912D02*
X22758349Y-14038388D01*
X22758349Y-14038388D02*
X22748825Y-14019341D01*
X22748825Y-14019341D02*
X22729777Y-14009817D01*
X22729777Y-14009817D02*
X22701206Y-14009817D01*
X22701206Y-14009817D02*
X22682158Y-14000293D01*
X22682158Y-14000293D02*
X22672634Y-13981246D01*
X22672634Y-13981246D02*
X22672634Y-13971722D01*
X22672634Y-13971722D02*
X22682158Y-13952674D01*
X22682158Y-13952674D02*
X22701206Y-13943150D01*
X22701206Y-13943150D02*
X22729777Y-13943150D01*
X22729777Y-13943150D02*
X22748825Y-13952674D01*
X22825015Y-14152674D02*
X22834539Y-14143150D01*
X22834539Y-14143150D02*
X22853587Y-14114579D01*
X22853587Y-14114579D02*
X22863111Y-14095531D01*
X22863111Y-14095531D02*
X22872634Y-14066960D01*
X22872634Y-14066960D02*
X22882158Y-14019341D01*
X22882158Y-14019341D02*
X22882158Y-13981246D01*
X22882158Y-13981246D02*
X22872634Y-13933627D01*
X22872634Y-13933627D02*
X22863111Y-13905055D01*
X22863111Y-13905055D02*
X22853587Y-13886008D01*
X22853587Y-13886008D02*
X22834539Y-13857436D01*
X22834539Y-13857436D02*
X22825015Y-13847912D01*
D11*
X17669000Y-14249000D02*
G75*
G02*
X17639000Y-14249000I-15000J0D01*
G01*
X17639000Y-14249000D02*
G75*
G02*
X17669000Y-14249000I15000J0D01*
G01*
D10*
X17967872Y-14140484D02*
X17986920Y-14140484D01*
X17986920Y-14140484D02*
X18005967Y-14150008D01*
X18005967Y-14150008D02*
X18015491Y-14159531D01*
X18015491Y-14159531D02*
X18025015Y-14178579D01*
X18025015Y-14178579D02*
X18034539Y-14216674D01*
X18034539Y-14216674D02*
X18034539Y-14264293D01*
X18034539Y-14264293D02*
X18025015Y-14302388D01*
X18025015Y-14302388D02*
X18015491Y-14321436D01*
X18015491Y-14321436D02*
X18005967Y-14330960D01*
X18005967Y-14330960D02*
X17986920Y-14340484D01*
X17986920Y-14340484D02*
X17967872Y-14340484D01*
X17967872Y-14340484D02*
X17948824Y-14330960D01*
X17948824Y-14330960D02*
X17939301Y-14321436D01*
X17939301Y-14321436D02*
X17929777Y-14302388D01*
X17929777Y-14302388D02*
X17920253Y-14264293D01*
X17920253Y-14264293D02*
X17920253Y-14216674D01*
X17920253Y-14216674D02*
X17929777Y-14178579D01*
X17929777Y-14178579D02*
X17939301Y-14159531D01*
X17939301Y-14159531D02*
X17948824Y-14150008D01*
X17948824Y-14150008D02*
X17967872Y-14140484D01*
X18120253Y-14321436D02*
X18129777Y-14330960D01*
X18129777Y-14330960D02*
X18120253Y-14340484D01*
X18120253Y-14340484D02*
X18110729Y-14330960D01*
X18110729Y-14330960D02*
X18120253Y-14321436D01*
X18120253Y-14321436D02*
X18120253Y-14340484D01*
X18196444Y-14140484D02*
X18320253Y-14140484D01*
X18320253Y-14140484D02*
X18253586Y-14216674D01*
X18253586Y-14216674D02*
X18282158Y-14216674D01*
X18282158Y-14216674D02*
X18301205Y-14226198D01*
X18301205Y-14226198D02*
X18310729Y-14235722D01*
X18310729Y-14235722D02*
X18320253Y-14254769D01*
X18320253Y-14254769D02*
X18320253Y-14302388D01*
X18320253Y-14302388D02*
X18310729Y-14321436D01*
X18310729Y-14321436D02*
X18301205Y-14330960D01*
X18301205Y-14330960D02*
X18282158Y-14340484D01*
X18282158Y-14340484D02*
X18225015Y-14340484D01*
X18225015Y-14340484D02*
X18205967Y-14330960D01*
X18205967Y-14330960D02*
X18196444Y-14321436D01*
X18444063Y-14140484D02*
X18463110Y-14140484D01*
X18463110Y-14140484D02*
X18482158Y-14150008D01*
X18482158Y-14150008D02*
X18491682Y-14159531D01*
X18491682Y-14159531D02*
X18501205Y-14178579D01*
X18501205Y-14178579D02*
X18510729Y-14216674D01*
X18510729Y-14216674D02*
X18510729Y-14264293D01*
X18510729Y-14264293D02*
X18501205Y-14302388D01*
X18501205Y-14302388D02*
X18491682Y-14321436D01*
X18491682Y-14321436D02*
X18482158Y-14330960D01*
X18482158Y-14330960D02*
X18463110Y-14340484D01*
X18463110Y-14340484D02*
X18444063Y-14340484D01*
X18444063Y-14340484D02*
X18425015Y-14330960D01*
X18425015Y-14330960D02*
X18415491Y-14321436D01*
X18415491Y-14321436D02*
X18405967Y-14302388D01*
X18405967Y-14302388D02*
X18396444Y-14264293D01*
X18396444Y-14264293D02*
X18396444Y-14216674D01*
X18396444Y-14216674D02*
X18405967Y-14178579D01*
X18405967Y-14178579D02*
X18415491Y-14159531D01*
X18415491Y-14159531D02*
X18425015Y-14150008D01*
X18425015Y-14150008D02*
X18444063Y-14140484D01*
X18634539Y-14140484D02*
X18653586Y-14140484D01*
X18653586Y-14140484D02*
X18672634Y-14150008D01*
X18672634Y-14150008D02*
X18682158Y-14159531D01*
X18682158Y-14159531D02*
X18691682Y-14178579D01*
X18691682Y-14178579D02*
X18701205Y-14216674D01*
X18701205Y-14216674D02*
X18701205Y-14264293D01*
X18701205Y-14264293D02*
X18691682Y-14302388D01*
X18691682Y-14302388D02*
X18682158Y-14321436D01*
X18682158Y-14321436D02*
X18672634Y-14330960D01*
X18672634Y-14330960D02*
X18653586Y-14340484D01*
X18653586Y-14340484D02*
X18634539Y-14340484D01*
X18634539Y-14340484D02*
X18615491Y-14330960D01*
X18615491Y-14330960D02*
X18605967Y-14321436D01*
X18605967Y-14321436D02*
X18596444Y-14302388D01*
X18596444Y-14302388D02*
X18586920Y-14264293D01*
X18586920Y-14264293D02*
X18586920Y-14216674D01*
X18586920Y-14216674D02*
X18596444Y-14178579D01*
X18596444Y-14178579D02*
X18605967Y-14159531D01*
X18605967Y-14159531D02*
X18615491Y-14150008D01*
X18615491Y-14150008D02*
X18634539Y-14140484D01*
X18786920Y-14340484D02*
X18786920Y-14207150D01*
X18786920Y-14226198D02*
X18796444Y-14216674D01*
X18796444Y-14216674D02*
X18815491Y-14207150D01*
X18815491Y-14207150D02*
X18844063Y-14207150D01*
X18844063Y-14207150D02*
X18863110Y-14216674D01*
X18863110Y-14216674D02*
X18872634Y-14235722D01*
X18872634Y-14235722D02*
X18872634Y-14340484D01*
X18872634Y-14235722D02*
X18882158Y-14216674D01*
X18882158Y-14216674D02*
X18901205Y-14207150D01*
X18901205Y-14207150D02*
X18929777Y-14207150D01*
X18929777Y-14207150D02*
X18948825Y-14216674D01*
X18948825Y-14216674D02*
X18958348Y-14235722D01*
X18958348Y-14235722D02*
X18958348Y-14340484D01*
X19053586Y-14340484D02*
X19053586Y-14207150D01*
X19053586Y-14226198D02*
X19063110Y-14216674D01*
X19063110Y-14216674D02*
X19082158Y-14207150D01*
X19082158Y-14207150D02*
X19110729Y-14207150D01*
X19110729Y-14207150D02*
X19129777Y-14216674D01*
X19129777Y-14216674D02*
X19139301Y-14235722D01*
X19139301Y-14235722D02*
X19139301Y-14340484D01*
X19139301Y-14235722D02*
X19148825Y-14216674D01*
X19148825Y-14216674D02*
X19167872Y-14207150D01*
X19167872Y-14207150D02*
X19196444Y-14207150D01*
X19196444Y-14207150D02*
X19215491Y-14216674D01*
X19215491Y-14216674D02*
X19225015Y-14235722D01*
X19225015Y-14235722D02*
X19225015Y-14340484D01*
X19615491Y-14130960D02*
X19444063Y-14388103D01*
X19872634Y-14140484D02*
X19891682Y-14140484D01*
X19891682Y-14140484D02*
X19910729Y-14150008D01*
X19910729Y-14150008D02*
X19920253Y-14159531D01*
X19920253Y-14159531D02*
X19929777Y-14178579D01*
X19929777Y-14178579D02*
X19939301Y-14216674D01*
X19939301Y-14216674D02*
X19939301Y-14264293D01*
X19939301Y-14264293D02*
X19929777Y-14302388D01*
X19929777Y-14302388D02*
X19920253Y-14321436D01*
X19920253Y-14321436D02*
X19910729Y-14330960D01*
X19910729Y-14330960D02*
X19891682Y-14340484D01*
X19891682Y-14340484D02*
X19872634Y-14340484D01*
X19872634Y-14340484D02*
X19853587Y-14330960D01*
X19853587Y-14330960D02*
X19844063Y-14321436D01*
X19844063Y-14321436D02*
X19834539Y-14302388D01*
X19834539Y-14302388D02*
X19825015Y-14264293D01*
X19825015Y-14264293D02*
X19825015Y-14216674D01*
X19825015Y-14216674D02*
X19834539Y-14178579D01*
X19834539Y-14178579D02*
X19844063Y-14159531D01*
X19844063Y-14159531D02*
X19853587Y-14150008D01*
X19853587Y-14150008D02*
X19872634Y-14140484D01*
X20025015Y-14321436D02*
X20034539Y-14330960D01*
X20034539Y-14330960D02*
X20025015Y-14340484D01*
X20025015Y-14340484D02*
X20015491Y-14330960D01*
X20015491Y-14330960D02*
X20025015Y-14321436D01*
X20025015Y-14321436D02*
X20025015Y-14340484D01*
X20158348Y-14140484D02*
X20177396Y-14140484D01*
X20177396Y-14140484D02*
X20196444Y-14150008D01*
X20196444Y-14150008D02*
X20205968Y-14159531D01*
X20205968Y-14159531D02*
X20215491Y-14178579D01*
X20215491Y-14178579D02*
X20225015Y-14216674D01*
X20225015Y-14216674D02*
X20225015Y-14264293D01*
X20225015Y-14264293D02*
X20215491Y-14302388D01*
X20215491Y-14302388D02*
X20205968Y-14321436D01*
X20205968Y-14321436D02*
X20196444Y-14330960D01*
X20196444Y-14330960D02*
X20177396Y-14340484D01*
X20177396Y-14340484D02*
X20158348Y-14340484D01*
X20158348Y-14340484D02*
X20139301Y-14330960D01*
X20139301Y-14330960D02*
X20129777Y-14321436D01*
X20129777Y-14321436D02*
X20120253Y-14302388D01*
X20120253Y-14302388D02*
X20110729Y-14264293D01*
X20110729Y-14264293D02*
X20110729Y-14216674D01*
X20110729Y-14216674D02*
X20120253Y-14178579D01*
X20120253Y-14178579D02*
X20129777Y-14159531D01*
X20129777Y-14159531D02*
X20139301Y-14150008D01*
X20139301Y-14150008D02*
X20158348Y-14140484D01*
X20415491Y-14340484D02*
X20301206Y-14340484D01*
X20358348Y-14340484D02*
X20358348Y-14140484D01*
X20358348Y-14140484D02*
X20339301Y-14169055D01*
X20339301Y-14169055D02*
X20320253Y-14188103D01*
X20320253Y-14188103D02*
X20301206Y-14197627D01*
X20605968Y-14340484D02*
X20491682Y-14340484D01*
X20548825Y-14340484D02*
X20548825Y-14140484D01*
X20548825Y-14140484D02*
X20529777Y-14169055D01*
X20529777Y-14169055D02*
X20510729Y-14188103D01*
X20510729Y-14188103D02*
X20491682Y-14197627D01*
X20720253Y-14226198D02*
X20701206Y-14216674D01*
X20701206Y-14216674D02*
X20691682Y-14207150D01*
X20691682Y-14207150D02*
X20682158Y-14188103D01*
X20682158Y-14188103D02*
X20682158Y-14178579D01*
X20682158Y-14178579D02*
X20691682Y-14159531D01*
X20691682Y-14159531D02*
X20701206Y-14150008D01*
X20701206Y-14150008D02*
X20720253Y-14140484D01*
X20720253Y-14140484D02*
X20758349Y-14140484D01*
X20758349Y-14140484D02*
X20777396Y-14150008D01*
X20777396Y-14150008D02*
X20786920Y-14159531D01*
X20786920Y-14159531D02*
X20796444Y-14178579D01*
X20796444Y-14178579D02*
X20796444Y-14188103D01*
X20796444Y-14188103D02*
X20786920Y-14207150D01*
X20786920Y-14207150D02*
X20777396Y-14216674D01*
X20777396Y-14216674D02*
X20758349Y-14226198D01*
X20758349Y-14226198D02*
X20720253Y-14226198D01*
X20720253Y-14226198D02*
X20701206Y-14235722D01*
X20701206Y-14235722D02*
X20691682Y-14245246D01*
X20691682Y-14245246D02*
X20682158Y-14264293D01*
X20682158Y-14264293D02*
X20682158Y-14302388D01*
X20682158Y-14302388D02*
X20691682Y-14321436D01*
X20691682Y-14321436D02*
X20701206Y-14330960D01*
X20701206Y-14330960D02*
X20720253Y-14340484D01*
X20720253Y-14340484D02*
X20758349Y-14340484D01*
X20758349Y-14340484D02*
X20777396Y-14330960D01*
X20777396Y-14330960D02*
X20786920Y-14321436D01*
X20786920Y-14321436D02*
X20796444Y-14302388D01*
X20796444Y-14302388D02*
X20796444Y-14264293D01*
X20796444Y-14264293D02*
X20786920Y-14245246D01*
X20786920Y-14245246D02*
X20777396Y-14235722D01*
X20777396Y-14235722D02*
X20758349Y-14226198D01*
X20872634Y-14140484D02*
X20872634Y-14178579D01*
X20948825Y-14140484D02*
X20948825Y-14178579D01*
X21244063Y-14416674D02*
X21234539Y-14407150D01*
X21234539Y-14407150D02*
X21215491Y-14378579D01*
X21215491Y-14378579D02*
X21205968Y-14359531D01*
X21205968Y-14359531D02*
X21196444Y-14330960D01*
X21196444Y-14330960D02*
X21186920Y-14283341D01*
X21186920Y-14283341D02*
X21186920Y-14245246D01*
X21186920Y-14245246D02*
X21196444Y-14197627D01*
X21196444Y-14197627D02*
X21205968Y-14169055D01*
X21205968Y-14169055D02*
X21215491Y-14150008D01*
X21215491Y-14150008D02*
X21234539Y-14121436D01*
X21234539Y-14121436D02*
X21244063Y-14111912D01*
X21329777Y-14340484D02*
X21367872Y-14340484D01*
X21367872Y-14340484D02*
X21386920Y-14330960D01*
X21386920Y-14330960D02*
X21396444Y-14321436D01*
X21396444Y-14321436D02*
X21415491Y-14292865D01*
X21415491Y-14292865D02*
X21425015Y-14254769D01*
X21425015Y-14254769D02*
X21425015Y-14178579D01*
X21425015Y-14178579D02*
X21415491Y-14159531D01*
X21415491Y-14159531D02*
X21405968Y-14150008D01*
X21405968Y-14150008D02*
X21386920Y-14140484D01*
X21386920Y-14140484D02*
X21348825Y-14140484D01*
X21348825Y-14140484D02*
X21329777Y-14150008D01*
X21329777Y-14150008D02*
X21320253Y-14159531D01*
X21320253Y-14159531D02*
X21310730Y-14178579D01*
X21310730Y-14178579D02*
X21310730Y-14226198D01*
X21310730Y-14226198D02*
X21320253Y-14245246D01*
X21320253Y-14245246D02*
X21329777Y-14254769D01*
X21329777Y-14254769D02*
X21348825Y-14264293D01*
X21348825Y-14264293D02*
X21386920Y-14264293D01*
X21386920Y-14264293D02*
X21405968Y-14254769D01*
X21405968Y-14254769D02*
X21415491Y-14245246D01*
X21415491Y-14245246D02*
X21425015Y-14226198D01*
X21663111Y-14340484D02*
X21663111Y-14140484D01*
X21748825Y-14340484D02*
X21748825Y-14235722D01*
X21748825Y-14235722D02*
X21739301Y-14216674D01*
X21739301Y-14216674D02*
X21720253Y-14207150D01*
X21720253Y-14207150D02*
X21691682Y-14207150D01*
X21691682Y-14207150D02*
X21672634Y-14216674D01*
X21672634Y-14216674D02*
X21663111Y-14226198D01*
X21872634Y-14340484D02*
X21853587Y-14330960D01*
X21853587Y-14330960D02*
X21844063Y-14321436D01*
X21844063Y-14321436D02*
X21834539Y-14302388D01*
X21834539Y-14302388D02*
X21834539Y-14245246D01*
X21834539Y-14245246D02*
X21844063Y-14226198D01*
X21844063Y-14226198D02*
X21853587Y-14216674D01*
X21853587Y-14216674D02*
X21872634Y-14207150D01*
X21872634Y-14207150D02*
X21901206Y-14207150D01*
X21901206Y-14207150D02*
X21920253Y-14216674D01*
X21920253Y-14216674D02*
X21929777Y-14226198D01*
X21929777Y-14226198D02*
X21939301Y-14245246D01*
X21939301Y-14245246D02*
X21939301Y-14302388D01*
X21939301Y-14302388D02*
X21929777Y-14321436D01*
X21929777Y-14321436D02*
X21920253Y-14330960D01*
X21920253Y-14330960D02*
X21901206Y-14340484D01*
X21901206Y-14340484D02*
X21872634Y-14340484D01*
X22053587Y-14340484D02*
X22034539Y-14330960D01*
X22034539Y-14330960D02*
X22025015Y-14311912D01*
X22025015Y-14311912D02*
X22025015Y-14140484D01*
X22205968Y-14330960D02*
X22186920Y-14340484D01*
X22186920Y-14340484D02*
X22148825Y-14340484D01*
X22148825Y-14340484D02*
X22129777Y-14330960D01*
X22129777Y-14330960D02*
X22120253Y-14311912D01*
X22120253Y-14311912D02*
X22120253Y-14235722D01*
X22120253Y-14235722D02*
X22129777Y-14216674D01*
X22129777Y-14216674D02*
X22148825Y-14207150D01*
X22148825Y-14207150D02*
X22186920Y-14207150D01*
X22186920Y-14207150D02*
X22205968Y-14216674D01*
X22205968Y-14216674D02*
X22215492Y-14235722D01*
X22215492Y-14235722D02*
X22215492Y-14254769D01*
X22215492Y-14254769D02*
X22120253Y-14273817D01*
X22291682Y-14330960D02*
X22310730Y-14340484D01*
X22310730Y-14340484D02*
X22348825Y-14340484D01*
X22348825Y-14340484D02*
X22367873Y-14330960D01*
X22367873Y-14330960D02*
X22377396Y-14311912D01*
X22377396Y-14311912D02*
X22377396Y-14302388D01*
X22377396Y-14302388D02*
X22367873Y-14283341D01*
X22367873Y-14283341D02*
X22348825Y-14273817D01*
X22348825Y-14273817D02*
X22320253Y-14273817D01*
X22320253Y-14273817D02*
X22301206Y-14264293D01*
X22301206Y-14264293D02*
X22291682Y-14245246D01*
X22291682Y-14245246D02*
X22291682Y-14235722D01*
X22291682Y-14235722D02*
X22301206Y-14216674D01*
X22301206Y-14216674D02*
X22320253Y-14207150D01*
X22320253Y-14207150D02*
X22348825Y-14207150D01*
X22348825Y-14207150D02*
X22367873Y-14216674D01*
X22444063Y-14416674D02*
X22453587Y-14407150D01*
X22453587Y-14407150D02*
X22472634Y-14378579D01*
X22472634Y-14378579D02*
X22482158Y-14359531D01*
X22482158Y-14359531D02*
X22491682Y-14330960D01*
X22491682Y-14330960D02*
X22501206Y-14283341D01*
X22501206Y-14283341D02*
X22501206Y-14245246D01*
X22501206Y-14245246D02*
X22491682Y-14197627D01*
X22491682Y-14197627D02*
X22482158Y-14169055D01*
X22482158Y-14169055D02*
X22472634Y-14150008D01*
X22472634Y-14150008D02*
X22453587Y-14121436D01*
X22453587Y-14121436D02*
X22444063Y-14111912D01*
D11*
X17639000Y-14483000D02*
X17639000Y-14543000D01*
X17609000Y-14513000D02*
X17669000Y-14513000D01*
D10*
X17967872Y-14404484D02*
X17986920Y-14404484D01*
X17986920Y-14404484D02*
X18005967Y-14414008D01*
X18005967Y-14414008D02*
X18015491Y-14423531D01*
X18015491Y-14423531D02*
X18025015Y-14442579D01*
X18025015Y-14442579D02*
X18034539Y-14480674D01*
X18034539Y-14480674D02*
X18034539Y-14528293D01*
X18034539Y-14528293D02*
X18025015Y-14566388D01*
X18025015Y-14566388D02*
X18015491Y-14585436D01*
X18015491Y-14585436D02*
X18005967Y-14594960D01*
X18005967Y-14594960D02*
X17986920Y-14604484D01*
X17986920Y-14604484D02*
X17967872Y-14604484D01*
X17967872Y-14604484D02*
X17948824Y-14594960D01*
X17948824Y-14594960D02*
X17939301Y-14585436D01*
X17939301Y-14585436D02*
X17929777Y-14566388D01*
X17929777Y-14566388D02*
X17920253Y-14528293D01*
X17920253Y-14528293D02*
X17920253Y-14480674D01*
X17920253Y-14480674D02*
X17929777Y-14442579D01*
X17929777Y-14442579D02*
X17939301Y-14423531D01*
X17939301Y-14423531D02*
X17948824Y-14414008D01*
X17948824Y-14414008D02*
X17967872Y-14404484D01*
X18120253Y-14585436D02*
X18129777Y-14594960D01*
X18129777Y-14594960D02*
X18120253Y-14604484D01*
X18120253Y-14604484D02*
X18110729Y-14594960D01*
X18110729Y-14594960D02*
X18120253Y-14585436D01*
X18120253Y-14585436D02*
X18120253Y-14604484D01*
X18301205Y-14404484D02*
X18263110Y-14404484D01*
X18263110Y-14404484D02*
X18244063Y-14414008D01*
X18244063Y-14414008D02*
X18234539Y-14423531D01*
X18234539Y-14423531D02*
X18215491Y-14452103D01*
X18215491Y-14452103D02*
X18205967Y-14490198D01*
X18205967Y-14490198D02*
X18205967Y-14566388D01*
X18205967Y-14566388D02*
X18215491Y-14585436D01*
X18215491Y-14585436D02*
X18225015Y-14594960D01*
X18225015Y-14594960D02*
X18244063Y-14604484D01*
X18244063Y-14604484D02*
X18282158Y-14604484D01*
X18282158Y-14604484D02*
X18301205Y-14594960D01*
X18301205Y-14594960D02*
X18310729Y-14585436D01*
X18310729Y-14585436D02*
X18320253Y-14566388D01*
X18320253Y-14566388D02*
X18320253Y-14518769D01*
X18320253Y-14518769D02*
X18310729Y-14499722D01*
X18310729Y-14499722D02*
X18301205Y-14490198D01*
X18301205Y-14490198D02*
X18282158Y-14480674D01*
X18282158Y-14480674D02*
X18244063Y-14480674D01*
X18244063Y-14480674D02*
X18225015Y-14490198D01*
X18225015Y-14490198D02*
X18215491Y-14499722D01*
X18215491Y-14499722D02*
X18205967Y-14518769D01*
X18444063Y-14404484D02*
X18463110Y-14404484D01*
X18463110Y-14404484D02*
X18482158Y-14414008D01*
X18482158Y-14414008D02*
X18491682Y-14423531D01*
X18491682Y-14423531D02*
X18501205Y-14442579D01*
X18501205Y-14442579D02*
X18510729Y-14480674D01*
X18510729Y-14480674D02*
X18510729Y-14528293D01*
X18510729Y-14528293D02*
X18501205Y-14566388D01*
X18501205Y-14566388D02*
X18491682Y-14585436D01*
X18491682Y-14585436D02*
X18482158Y-14594960D01*
X18482158Y-14594960D02*
X18463110Y-14604484D01*
X18463110Y-14604484D02*
X18444063Y-14604484D01*
X18444063Y-14604484D02*
X18425015Y-14594960D01*
X18425015Y-14594960D02*
X18415491Y-14585436D01*
X18415491Y-14585436D02*
X18405967Y-14566388D01*
X18405967Y-14566388D02*
X18396444Y-14528293D01*
X18396444Y-14528293D02*
X18396444Y-14480674D01*
X18396444Y-14480674D02*
X18405967Y-14442579D01*
X18405967Y-14442579D02*
X18415491Y-14423531D01*
X18415491Y-14423531D02*
X18425015Y-14414008D01*
X18425015Y-14414008D02*
X18444063Y-14404484D01*
X18634539Y-14404484D02*
X18653586Y-14404484D01*
X18653586Y-14404484D02*
X18672634Y-14414008D01*
X18672634Y-14414008D02*
X18682158Y-14423531D01*
X18682158Y-14423531D02*
X18691682Y-14442579D01*
X18691682Y-14442579D02*
X18701205Y-14480674D01*
X18701205Y-14480674D02*
X18701205Y-14528293D01*
X18701205Y-14528293D02*
X18691682Y-14566388D01*
X18691682Y-14566388D02*
X18682158Y-14585436D01*
X18682158Y-14585436D02*
X18672634Y-14594960D01*
X18672634Y-14594960D02*
X18653586Y-14604484D01*
X18653586Y-14604484D02*
X18634539Y-14604484D01*
X18634539Y-14604484D02*
X18615491Y-14594960D01*
X18615491Y-14594960D02*
X18605967Y-14585436D01*
X18605967Y-14585436D02*
X18596444Y-14566388D01*
X18596444Y-14566388D02*
X18586920Y-14528293D01*
X18586920Y-14528293D02*
X18586920Y-14480674D01*
X18586920Y-14480674D02*
X18596444Y-14442579D01*
X18596444Y-14442579D02*
X18605967Y-14423531D01*
X18605967Y-14423531D02*
X18615491Y-14414008D01*
X18615491Y-14414008D02*
X18634539Y-14404484D01*
X18786920Y-14604484D02*
X18786920Y-14471150D01*
X18786920Y-14490198D02*
X18796444Y-14480674D01*
X18796444Y-14480674D02*
X18815491Y-14471150D01*
X18815491Y-14471150D02*
X18844063Y-14471150D01*
X18844063Y-14471150D02*
X18863110Y-14480674D01*
X18863110Y-14480674D02*
X18872634Y-14499722D01*
X18872634Y-14499722D02*
X18872634Y-14604484D01*
X18872634Y-14499722D02*
X18882158Y-14480674D01*
X18882158Y-14480674D02*
X18901205Y-14471150D01*
X18901205Y-14471150D02*
X18929777Y-14471150D01*
X18929777Y-14471150D02*
X18948825Y-14480674D01*
X18948825Y-14480674D02*
X18958348Y-14499722D01*
X18958348Y-14499722D02*
X18958348Y-14604484D01*
X19053586Y-14604484D02*
X19053586Y-14471150D01*
X19053586Y-14490198D02*
X19063110Y-14480674D01*
X19063110Y-14480674D02*
X19082158Y-14471150D01*
X19082158Y-14471150D02*
X19110729Y-14471150D01*
X19110729Y-14471150D02*
X19129777Y-14480674D01*
X19129777Y-14480674D02*
X19139301Y-14499722D01*
X19139301Y-14499722D02*
X19139301Y-14604484D01*
X19139301Y-14499722D02*
X19148825Y-14480674D01*
X19148825Y-14480674D02*
X19167872Y-14471150D01*
X19167872Y-14471150D02*
X19196444Y-14471150D01*
X19196444Y-14471150D02*
X19215491Y-14480674D01*
X19215491Y-14480674D02*
X19225015Y-14499722D01*
X19225015Y-14499722D02*
X19225015Y-14604484D01*
X19615491Y-14394960D02*
X19444063Y-14652103D01*
X19872634Y-14404484D02*
X19891682Y-14404484D01*
X19891682Y-14404484D02*
X19910729Y-14414008D01*
X19910729Y-14414008D02*
X19920253Y-14423531D01*
X19920253Y-14423531D02*
X19929777Y-14442579D01*
X19929777Y-14442579D02*
X19939301Y-14480674D01*
X19939301Y-14480674D02*
X19939301Y-14528293D01*
X19939301Y-14528293D02*
X19929777Y-14566388D01*
X19929777Y-14566388D02*
X19920253Y-14585436D01*
X19920253Y-14585436D02*
X19910729Y-14594960D01*
X19910729Y-14594960D02*
X19891682Y-14604484D01*
X19891682Y-14604484D02*
X19872634Y-14604484D01*
X19872634Y-14604484D02*
X19853587Y-14594960D01*
X19853587Y-14594960D02*
X19844063Y-14585436D01*
X19844063Y-14585436D02*
X19834539Y-14566388D01*
X19834539Y-14566388D02*
X19825015Y-14528293D01*
X19825015Y-14528293D02*
X19825015Y-14480674D01*
X19825015Y-14480674D02*
X19834539Y-14442579D01*
X19834539Y-14442579D02*
X19844063Y-14423531D01*
X19844063Y-14423531D02*
X19853587Y-14414008D01*
X19853587Y-14414008D02*
X19872634Y-14404484D01*
X20025015Y-14585436D02*
X20034539Y-14594960D01*
X20034539Y-14594960D02*
X20025015Y-14604484D01*
X20025015Y-14604484D02*
X20015491Y-14594960D01*
X20015491Y-14594960D02*
X20025015Y-14585436D01*
X20025015Y-14585436D02*
X20025015Y-14604484D01*
X20158348Y-14404484D02*
X20177396Y-14404484D01*
X20177396Y-14404484D02*
X20196444Y-14414008D01*
X20196444Y-14414008D02*
X20205968Y-14423531D01*
X20205968Y-14423531D02*
X20215491Y-14442579D01*
X20215491Y-14442579D02*
X20225015Y-14480674D01*
X20225015Y-14480674D02*
X20225015Y-14528293D01*
X20225015Y-14528293D02*
X20215491Y-14566388D01*
X20215491Y-14566388D02*
X20205968Y-14585436D01*
X20205968Y-14585436D02*
X20196444Y-14594960D01*
X20196444Y-14594960D02*
X20177396Y-14604484D01*
X20177396Y-14604484D02*
X20158348Y-14604484D01*
X20158348Y-14604484D02*
X20139301Y-14594960D01*
X20139301Y-14594960D02*
X20129777Y-14585436D01*
X20129777Y-14585436D02*
X20120253Y-14566388D01*
X20120253Y-14566388D02*
X20110729Y-14528293D01*
X20110729Y-14528293D02*
X20110729Y-14480674D01*
X20110729Y-14480674D02*
X20120253Y-14442579D01*
X20120253Y-14442579D02*
X20129777Y-14423531D01*
X20129777Y-14423531D02*
X20139301Y-14414008D01*
X20139301Y-14414008D02*
X20158348Y-14404484D01*
X20301206Y-14423531D02*
X20310729Y-14414008D01*
X20310729Y-14414008D02*
X20329777Y-14404484D01*
X20329777Y-14404484D02*
X20377396Y-14404484D01*
X20377396Y-14404484D02*
X20396444Y-14414008D01*
X20396444Y-14414008D02*
X20405968Y-14423531D01*
X20405968Y-14423531D02*
X20415491Y-14442579D01*
X20415491Y-14442579D02*
X20415491Y-14461627D01*
X20415491Y-14461627D02*
X20405968Y-14490198D01*
X20405968Y-14490198D02*
X20291682Y-14604484D01*
X20291682Y-14604484D02*
X20415491Y-14604484D01*
X20482158Y-14404484D02*
X20605968Y-14404484D01*
X20605968Y-14404484D02*
X20539301Y-14480674D01*
X20539301Y-14480674D02*
X20567872Y-14480674D01*
X20567872Y-14480674D02*
X20586920Y-14490198D01*
X20586920Y-14490198D02*
X20596444Y-14499722D01*
X20596444Y-14499722D02*
X20605968Y-14518769D01*
X20605968Y-14518769D02*
X20605968Y-14566388D01*
X20605968Y-14566388D02*
X20596444Y-14585436D01*
X20596444Y-14585436D02*
X20586920Y-14594960D01*
X20586920Y-14594960D02*
X20567872Y-14604484D01*
X20567872Y-14604484D02*
X20510729Y-14604484D01*
X20510729Y-14604484D02*
X20491682Y-14594960D01*
X20491682Y-14594960D02*
X20482158Y-14585436D01*
X20777396Y-14404484D02*
X20739301Y-14404484D01*
X20739301Y-14404484D02*
X20720253Y-14414008D01*
X20720253Y-14414008D02*
X20710729Y-14423531D01*
X20710729Y-14423531D02*
X20691682Y-14452103D01*
X20691682Y-14452103D02*
X20682158Y-14490198D01*
X20682158Y-14490198D02*
X20682158Y-14566388D01*
X20682158Y-14566388D02*
X20691682Y-14585436D01*
X20691682Y-14585436D02*
X20701206Y-14594960D01*
X20701206Y-14594960D02*
X20720253Y-14604484D01*
X20720253Y-14604484D02*
X20758349Y-14604484D01*
X20758349Y-14604484D02*
X20777396Y-14594960D01*
X20777396Y-14594960D02*
X20786920Y-14585436D01*
X20786920Y-14585436D02*
X20796444Y-14566388D01*
X20796444Y-14566388D02*
X20796444Y-14518769D01*
X20796444Y-14518769D02*
X20786920Y-14499722D01*
X20786920Y-14499722D02*
X20777396Y-14490198D01*
X20777396Y-14490198D02*
X20758349Y-14480674D01*
X20758349Y-14480674D02*
X20720253Y-14480674D01*
X20720253Y-14480674D02*
X20701206Y-14490198D01*
X20701206Y-14490198D02*
X20691682Y-14499722D01*
X20691682Y-14499722D02*
X20682158Y-14518769D01*
X20872634Y-14404484D02*
X20872634Y-14442579D01*
X20948825Y-14404484D02*
X20948825Y-14442579D01*
X21244063Y-14680674D02*
X21234539Y-14671150D01*
X21234539Y-14671150D02*
X21215491Y-14642579D01*
X21215491Y-14642579D02*
X21205968Y-14623531D01*
X21205968Y-14623531D02*
X21196444Y-14594960D01*
X21196444Y-14594960D02*
X21186920Y-14547341D01*
X21186920Y-14547341D02*
X21186920Y-14509246D01*
X21186920Y-14509246D02*
X21196444Y-14461627D01*
X21196444Y-14461627D02*
X21205968Y-14433055D01*
X21205968Y-14433055D02*
X21215491Y-14414008D01*
X21215491Y-14414008D02*
X21234539Y-14385436D01*
X21234539Y-14385436D02*
X21244063Y-14375912D01*
X21358349Y-14404484D02*
X21377396Y-14404484D01*
X21377396Y-14404484D02*
X21396444Y-14414008D01*
X21396444Y-14414008D02*
X21405968Y-14423531D01*
X21405968Y-14423531D02*
X21415491Y-14442579D01*
X21415491Y-14442579D02*
X21425015Y-14480674D01*
X21425015Y-14480674D02*
X21425015Y-14528293D01*
X21425015Y-14528293D02*
X21415491Y-14566388D01*
X21415491Y-14566388D02*
X21405968Y-14585436D01*
X21405968Y-14585436D02*
X21396444Y-14594960D01*
X21396444Y-14594960D02*
X21377396Y-14604484D01*
X21377396Y-14604484D02*
X21358349Y-14604484D01*
X21358349Y-14604484D02*
X21339301Y-14594960D01*
X21339301Y-14594960D02*
X21329777Y-14585436D01*
X21329777Y-14585436D02*
X21320253Y-14566388D01*
X21320253Y-14566388D02*
X21310730Y-14528293D01*
X21310730Y-14528293D02*
X21310730Y-14480674D01*
X21310730Y-14480674D02*
X21320253Y-14442579D01*
X21320253Y-14442579D02*
X21329777Y-14423531D01*
X21329777Y-14423531D02*
X21339301Y-14414008D01*
X21339301Y-14414008D02*
X21358349Y-14404484D01*
X21663111Y-14604484D02*
X21663111Y-14404484D01*
X21748825Y-14604484D02*
X21748825Y-14499722D01*
X21748825Y-14499722D02*
X21739301Y-14480674D01*
X21739301Y-14480674D02*
X21720253Y-14471150D01*
X21720253Y-14471150D02*
X21691682Y-14471150D01*
X21691682Y-14471150D02*
X21672634Y-14480674D01*
X21672634Y-14480674D02*
X21663111Y-14490198D01*
X21872634Y-14604484D02*
X21853587Y-14594960D01*
X21853587Y-14594960D02*
X21844063Y-14585436D01*
X21844063Y-14585436D02*
X21834539Y-14566388D01*
X21834539Y-14566388D02*
X21834539Y-14509246D01*
X21834539Y-14509246D02*
X21844063Y-14490198D01*
X21844063Y-14490198D02*
X21853587Y-14480674D01*
X21853587Y-14480674D02*
X21872634Y-14471150D01*
X21872634Y-14471150D02*
X21901206Y-14471150D01*
X21901206Y-14471150D02*
X21920253Y-14480674D01*
X21920253Y-14480674D02*
X21929777Y-14490198D01*
X21929777Y-14490198D02*
X21939301Y-14509246D01*
X21939301Y-14509246D02*
X21939301Y-14566388D01*
X21939301Y-14566388D02*
X21929777Y-14585436D01*
X21929777Y-14585436D02*
X21920253Y-14594960D01*
X21920253Y-14594960D02*
X21901206Y-14604484D01*
X21901206Y-14604484D02*
X21872634Y-14604484D01*
X22053587Y-14604484D02*
X22034539Y-14594960D01*
X22034539Y-14594960D02*
X22025015Y-14575912D01*
X22025015Y-14575912D02*
X22025015Y-14404484D01*
X22205968Y-14594960D02*
X22186920Y-14604484D01*
X22186920Y-14604484D02*
X22148825Y-14604484D01*
X22148825Y-14604484D02*
X22129777Y-14594960D01*
X22129777Y-14594960D02*
X22120253Y-14575912D01*
X22120253Y-14575912D02*
X22120253Y-14499722D01*
X22120253Y-14499722D02*
X22129777Y-14480674D01*
X22129777Y-14480674D02*
X22148825Y-14471150D01*
X22148825Y-14471150D02*
X22186920Y-14471150D01*
X22186920Y-14471150D02*
X22205968Y-14480674D01*
X22205968Y-14480674D02*
X22215492Y-14499722D01*
X22215492Y-14499722D02*
X22215492Y-14518769D01*
X22215492Y-14518769D02*
X22120253Y-14537817D01*
X22291682Y-14594960D02*
X22310730Y-14604484D01*
X22310730Y-14604484D02*
X22348825Y-14604484D01*
X22348825Y-14604484D02*
X22367873Y-14594960D01*
X22367873Y-14594960D02*
X22377396Y-14575912D01*
X22377396Y-14575912D02*
X22377396Y-14566388D01*
X22377396Y-14566388D02*
X22367873Y-14547341D01*
X22367873Y-14547341D02*
X22348825Y-14537817D01*
X22348825Y-14537817D02*
X22320253Y-14537817D01*
X22320253Y-14537817D02*
X22301206Y-14528293D01*
X22301206Y-14528293D02*
X22291682Y-14509246D01*
X22291682Y-14509246D02*
X22291682Y-14499722D01*
X22291682Y-14499722D02*
X22301206Y-14480674D01*
X22301206Y-14480674D02*
X22320253Y-14471150D01*
X22320253Y-14471150D02*
X22348825Y-14471150D01*
X22348825Y-14471150D02*
X22367873Y-14480674D01*
X22615492Y-14528293D02*
X22767873Y-14528293D01*
X22691682Y-14604484D02*
X22691682Y-14452103D01*
X23101206Y-14471150D02*
X23101206Y-14604484D01*
X23053587Y-14394960D02*
X23005968Y-14537817D01*
X23005968Y-14537817D02*
X23129777Y-14537817D01*
X23348825Y-14594960D02*
X23367873Y-14604484D01*
X23367873Y-14604484D02*
X23405968Y-14604484D01*
X23405968Y-14604484D02*
X23425015Y-14594960D01*
X23425015Y-14594960D02*
X23434539Y-14575912D01*
X23434539Y-14575912D02*
X23434539Y-14566388D01*
X23434539Y-14566388D02*
X23425015Y-14547341D01*
X23425015Y-14547341D02*
X23405968Y-14537817D01*
X23405968Y-14537817D02*
X23377396Y-14537817D01*
X23377396Y-14537817D02*
X23358349Y-14528293D01*
X23358349Y-14528293D02*
X23348825Y-14509246D01*
X23348825Y-14509246D02*
X23348825Y-14499722D01*
X23348825Y-14499722D02*
X23358349Y-14480674D01*
X23358349Y-14480674D02*
X23377396Y-14471150D01*
X23377396Y-14471150D02*
X23405968Y-14471150D01*
X23405968Y-14471150D02*
X23425015Y-14480674D01*
X23548825Y-14604484D02*
X23529777Y-14594960D01*
X23529777Y-14594960D02*
X23520254Y-14575912D01*
X23520254Y-14575912D02*
X23520254Y-14404484D01*
X23653587Y-14604484D02*
X23634539Y-14594960D01*
X23634539Y-14594960D02*
X23625015Y-14585436D01*
X23625015Y-14585436D02*
X23615492Y-14566388D01*
X23615492Y-14566388D02*
X23615492Y-14509246D01*
X23615492Y-14509246D02*
X23625015Y-14490198D01*
X23625015Y-14490198D02*
X23634539Y-14480674D01*
X23634539Y-14480674D02*
X23653587Y-14471150D01*
X23653587Y-14471150D02*
X23682158Y-14471150D01*
X23682158Y-14471150D02*
X23701206Y-14480674D01*
X23701206Y-14480674D02*
X23710730Y-14490198D01*
X23710730Y-14490198D02*
X23720254Y-14509246D01*
X23720254Y-14509246D02*
X23720254Y-14566388D01*
X23720254Y-14566388D02*
X23710730Y-14585436D01*
X23710730Y-14585436D02*
X23701206Y-14594960D01*
X23701206Y-14594960D02*
X23682158Y-14604484D01*
X23682158Y-14604484D02*
X23653587Y-14604484D01*
X23777396Y-14471150D02*
X23853587Y-14471150D01*
X23805968Y-14404484D02*
X23805968Y-14575912D01*
X23805968Y-14575912D02*
X23815492Y-14594960D01*
X23815492Y-14594960D02*
X23834539Y-14604484D01*
X23834539Y-14604484D02*
X23853587Y-14604484D01*
X23910730Y-14594960D02*
X23929777Y-14604484D01*
X23929777Y-14604484D02*
X23967873Y-14604484D01*
X23967873Y-14604484D02*
X23986920Y-14594960D01*
X23986920Y-14594960D02*
X23996444Y-14575912D01*
X23996444Y-14575912D02*
X23996444Y-14566388D01*
X23996444Y-14566388D02*
X23986920Y-14547341D01*
X23986920Y-14547341D02*
X23967873Y-14537817D01*
X23967873Y-14537817D02*
X23939301Y-14537817D01*
X23939301Y-14537817D02*
X23920254Y-14528293D01*
X23920254Y-14528293D02*
X23910730Y-14509246D01*
X23910730Y-14509246D02*
X23910730Y-14499722D01*
X23910730Y-14499722D02*
X23920254Y-14480674D01*
X23920254Y-14480674D02*
X23939301Y-14471150D01*
X23939301Y-14471150D02*
X23967873Y-14471150D01*
X23967873Y-14471150D02*
X23986920Y-14480674D01*
X24063111Y-14680674D02*
X24072635Y-14671150D01*
X24072635Y-14671150D02*
X24091682Y-14642579D01*
X24091682Y-14642579D02*
X24101206Y-14623531D01*
X24101206Y-14623531D02*
X24110730Y-14594960D01*
X24110730Y-14594960D02*
X24120254Y-14547341D01*
X24120254Y-14547341D02*
X24120254Y-14509246D01*
X24120254Y-14509246D02*
X24110730Y-14461627D01*
X24110730Y-14461627D02*
X24101206Y-14433055D01*
X24101206Y-14433055D02*
X24091682Y-14414008D01*
X24091682Y-14414008D02*
X24072635Y-14385436D01*
X24072635Y-14385436D02*
X24063111Y-14375912D01*
D11*
X17654356Y-14812356D02*
X17654356Y-14741644D01*
X17583644Y-14741644D01*
X17583644Y-14812356D01*
X17654356Y-14812356D01*
D10*
X18034539Y-14868484D02*
X17920253Y-14868484D01*
X17977396Y-14868484D02*
X17977396Y-14668484D01*
X17977396Y-14668484D02*
X17958348Y-14697055D01*
X17958348Y-14697055D02*
X17939301Y-14716103D01*
X17939301Y-14716103D02*
X17920253Y-14725627D01*
X18120253Y-14849436D02*
X18129777Y-14858960D01*
X18129777Y-14858960D02*
X18120253Y-14868484D01*
X18120253Y-14868484D02*
X18110729Y-14858960D01*
X18110729Y-14858960D02*
X18120253Y-14849436D01*
X18120253Y-14849436D02*
X18120253Y-14868484D01*
X18253586Y-14668484D02*
X18272634Y-14668484D01*
X18272634Y-14668484D02*
X18291682Y-14678008D01*
X18291682Y-14678008D02*
X18301205Y-14687531D01*
X18301205Y-14687531D02*
X18310729Y-14706579D01*
X18310729Y-14706579D02*
X18320253Y-14744674D01*
X18320253Y-14744674D02*
X18320253Y-14792293D01*
X18320253Y-14792293D02*
X18310729Y-14830388D01*
X18310729Y-14830388D02*
X18301205Y-14849436D01*
X18301205Y-14849436D02*
X18291682Y-14858960D01*
X18291682Y-14858960D02*
X18272634Y-14868484D01*
X18272634Y-14868484D02*
X18253586Y-14868484D01*
X18253586Y-14868484D02*
X18234539Y-14858960D01*
X18234539Y-14858960D02*
X18225015Y-14849436D01*
X18225015Y-14849436D02*
X18215491Y-14830388D01*
X18215491Y-14830388D02*
X18205967Y-14792293D01*
X18205967Y-14792293D02*
X18205967Y-14744674D01*
X18205967Y-14744674D02*
X18215491Y-14706579D01*
X18215491Y-14706579D02*
X18225015Y-14687531D01*
X18225015Y-14687531D02*
X18234539Y-14678008D01*
X18234539Y-14678008D02*
X18253586Y-14668484D01*
X18444063Y-14668484D02*
X18463110Y-14668484D01*
X18463110Y-14668484D02*
X18482158Y-14678008D01*
X18482158Y-14678008D02*
X18491682Y-14687531D01*
X18491682Y-14687531D02*
X18501205Y-14706579D01*
X18501205Y-14706579D02*
X18510729Y-14744674D01*
X18510729Y-14744674D02*
X18510729Y-14792293D01*
X18510729Y-14792293D02*
X18501205Y-14830388D01*
X18501205Y-14830388D02*
X18491682Y-14849436D01*
X18491682Y-14849436D02*
X18482158Y-14858960D01*
X18482158Y-14858960D02*
X18463110Y-14868484D01*
X18463110Y-14868484D02*
X18444063Y-14868484D01*
X18444063Y-14868484D02*
X18425015Y-14858960D01*
X18425015Y-14858960D02*
X18415491Y-14849436D01*
X18415491Y-14849436D02*
X18405967Y-14830388D01*
X18405967Y-14830388D02*
X18396444Y-14792293D01*
X18396444Y-14792293D02*
X18396444Y-14744674D01*
X18396444Y-14744674D02*
X18405967Y-14706579D01*
X18405967Y-14706579D02*
X18415491Y-14687531D01*
X18415491Y-14687531D02*
X18425015Y-14678008D01*
X18425015Y-14678008D02*
X18444063Y-14668484D01*
X18634539Y-14668484D02*
X18653586Y-14668484D01*
X18653586Y-14668484D02*
X18672634Y-14678008D01*
X18672634Y-14678008D02*
X18682158Y-14687531D01*
X18682158Y-14687531D02*
X18691682Y-14706579D01*
X18691682Y-14706579D02*
X18701205Y-14744674D01*
X18701205Y-14744674D02*
X18701205Y-14792293D01*
X18701205Y-14792293D02*
X18691682Y-14830388D01*
X18691682Y-14830388D02*
X18682158Y-14849436D01*
X18682158Y-14849436D02*
X18672634Y-14858960D01*
X18672634Y-14858960D02*
X18653586Y-14868484D01*
X18653586Y-14868484D02*
X18634539Y-14868484D01*
X18634539Y-14868484D02*
X18615491Y-14858960D01*
X18615491Y-14858960D02*
X18605967Y-14849436D01*
X18605967Y-14849436D02*
X18596444Y-14830388D01*
X18596444Y-14830388D02*
X18586920Y-14792293D01*
X18586920Y-14792293D02*
X18586920Y-14744674D01*
X18586920Y-14744674D02*
X18596444Y-14706579D01*
X18596444Y-14706579D02*
X18605967Y-14687531D01*
X18605967Y-14687531D02*
X18615491Y-14678008D01*
X18615491Y-14678008D02*
X18634539Y-14668484D01*
X18786920Y-14868484D02*
X18786920Y-14735150D01*
X18786920Y-14754198D02*
X18796444Y-14744674D01*
X18796444Y-14744674D02*
X18815491Y-14735150D01*
X18815491Y-14735150D02*
X18844063Y-14735150D01*
X18844063Y-14735150D02*
X18863110Y-14744674D01*
X18863110Y-14744674D02*
X18872634Y-14763722D01*
X18872634Y-14763722D02*
X18872634Y-14868484D01*
X18872634Y-14763722D02*
X18882158Y-14744674D01*
X18882158Y-14744674D02*
X18901205Y-14735150D01*
X18901205Y-14735150D02*
X18929777Y-14735150D01*
X18929777Y-14735150D02*
X18948825Y-14744674D01*
X18948825Y-14744674D02*
X18958348Y-14763722D01*
X18958348Y-14763722D02*
X18958348Y-14868484D01*
X19053586Y-14868484D02*
X19053586Y-14735150D01*
X19053586Y-14754198D02*
X19063110Y-14744674D01*
X19063110Y-14744674D02*
X19082158Y-14735150D01*
X19082158Y-14735150D02*
X19110729Y-14735150D01*
X19110729Y-14735150D02*
X19129777Y-14744674D01*
X19129777Y-14744674D02*
X19139301Y-14763722D01*
X19139301Y-14763722D02*
X19139301Y-14868484D01*
X19139301Y-14763722D02*
X19148825Y-14744674D01*
X19148825Y-14744674D02*
X19167872Y-14735150D01*
X19167872Y-14735150D02*
X19196444Y-14735150D01*
X19196444Y-14735150D02*
X19215491Y-14744674D01*
X19215491Y-14744674D02*
X19225015Y-14763722D01*
X19225015Y-14763722D02*
X19225015Y-14868484D01*
X19615491Y-14658960D02*
X19444063Y-14916103D01*
X19872634Y-14668484D02*
X19891682Y-14668484D01*
X19891682Y-14668484D02*
X19910729Y-14678008D01*
X19910729Y-14678008D02*
X19920253Y-14687531D01*
X19920253Y-14687531D02*
X19929777Y-14706579D01*
X19929777Y-14706579D02*
X19939301Y-14744674D01*
X19939301Y-14744674D02*
X19939301Y-14792293D01*
X19939301Y-14792293D02*
X19929777Y-14830388D01*
X19929777Y-14830388D02*
X19920253Y-14849436D01*
X19920253Y-14849436D02*
X19910729Y-14858960D01*
X19910729Y-14858960D02*
X19891682Y-14868484D01*
X19891682Y-14868484D02*
X19872634Y-14868484D01*
X19872634Y-14868484D02*
X19853587Y-14858960D01*
X19853587Y-14858960D02*
X19844063Y-14849436D01*
X19844063Y-14849436D02*
X19834539Y-14830388D01*
X19834539Y-14830388D02*
X19825015Y-14792293D01*
X19825015Y-14792293D02*
X19825015Y-14744674D01*
X19825015Y-14744674D02*
X19834539Y-14706579D01*
X19834539Y-14706579D02*
X19844063Y-14687531D01*
X19844063Y-14687531D02*
X19853587Y-14678008D01*
X19853587Y-14678008D02*
X19872634Y-14668484D01*
X20025015Y-14849436D02*
X20034539Y-14858960D01*
X20034539Y-14858960D02*
X20025015Y-14868484D01*
X20025015Y-14868484D02*
X20015491Y-14858960D01*
X20015491Y-14858960D02*
X20025015Y-14849436D01*
X20025015Y-14849436D02*
X20025015Y-14868484D01*
X20158348Y-14668484D02*
X20177396Y-14668484D01*
X20177396Y-14668484D02*
X20196444Y-14678008D01*
X20196444Y-14678008D02*
X20205968Y-14687531D01*
X20205968Y-14687531D02*
X20215491Y-14706579D01*
X20215491Y-14706579D02*
X20225015Y-14744674D01*
X20225015Y-14744674D02*
X20225015Y-14792293D01*
X20225015Y-14792293D02*
X20215491Y-14830388D01*
X20215491Y-14830388D02*
X20205968Y-14849436D01*
X20205968Y-14849436D02*
X20196444Y-14858960D01*
X20196444Y-14858960D02*
X20177396Y-14868484D01*
X20177396Y-14868484D02*
X20158348Y-14868484D01*
X20158348Y-14868484D02*
X20139301Y-14858960D01*
X20139301Y-14858960D02*
X20129777Y-14849436D01*
X20129777Y-14849436D02*
X20120253Y-14830388D01*
X20120253Y-14830388D02*
X20110729Y-14792293D01*
X20110729Y-14792293D02*
X20110729Y-14744674D01*
X20110729Y-14744674D02*
X20120253Y-14706579D01*
X20120253Y-14706579D02*
X20129777Y-14687531D01*
X20129777Y-14687531D02*
X20139301Y-14678008D01*
X20139301Y-14678008D02*
X20158348Y-14668484D01*
X20291682Y-14668484D02*
X20415491Y-14668484D01*
X20415491Y-14668484D02*
X20348825Y-14744674D01*
X20348825Y-14744674D02*
X20377396Y-14744674D01*
X20377396Y-14744674D02*
X20396444Y-14754198D01*
X20396444Y-14754198D02*
X20405968Y-14763722D01*
X20405968Y-14763722D02*
X20415491Y-14782769D01*
X20415491Y-14782769D02*
X20415491Y-14830388D01*
X20415491Y-14830388D02*
X20405968Y-14849436D01*
X20405968Y-14849436D02*
X20396444Y-14858960D01*
X20396444Y-14858960D02*
X20377396Y-14868484D01*
X20377396Y-14868484D02*
X20320253Y-14868484D01*
X20320253Y-14868484D02*
X20301206Y-14858960D01*
X20301206Y-14858960D02*
X20291682Y-14849436D01*
X20510729Y-14868484D02*
X20548825Y-14868484D01*
X20548825Y-14868484D02*
X20567872Y-14858960D01*
X20567872Y-14858960D02*
X20577396Y-14849436D01*
X20577396Y-14849436D02*
X20596444Y-14820865D01*
X20596444Y-14820865D02*
X20605968Y-14782769D01*
X20605968Y-14782769D02*
X20605968Y-14706579D01*
X20605968Y-14706579D02*
X20596444Y-14687531D01*
X20596444Y-14687531D02*
X20586920Y-14678008D01*
X20586920Y-14678008D02*
X20567872Y-14668484D01*
X20567872Y-14668484D02*
X20529777Y-14668484D01*
X20529777Y-14668484D02*
X20510729Y-14678008D01*
X20510729Y-14678008D02*
X20501206Y-14687531D01*
X20501206Y-14687531D02*
X20491682Y-14706579D01*
X20491682Y-14706579D02*
X20491682Y-14754198D01*
X20491682Y-14754198D02*
X20501206Y-14773246D01*
X20501206Y-14773246D02*
X20510729Y-14782769D01*
X20510729Y-14782769D02*
X20529777Y-14792293D01*
X20529777Y-14792293D02*
X20567872Y-14792293D01*
X20567872Y-14792293D02*
X20586920Y-14782769D01*
X20586920Y-14782769D02*
X20596444Y-14773246D01*
X20596444Y-14773246D02*
X20605968Y-14754198D01*
X20777396Y-14735150D02*
X20777396Y-14868484D01*
X20729777Y-14658960D02*
X20682158Y-14801817D01*
X20682158Y-14801817D02*
X20805968Y-14801817D01*
X20872634Y-14668484D02*
X20872634Y-14706579D01*
X20948825Y-14668484D02*
X20948825Y-14706579D01*
X21244063Y-14944674D02*
X21234539Y-14935150D01*
X21234539Y-14935150D02*
X21215491Y-14906579D01*
X21215491Y-14906579D02*
X21205968Y-14887531D01*
X21205968Y-14887531D02*
X21196444Y-14858960D01*
X21196444Y-14858960D02*
X21186920Y-14811341D01*
X21186920Y-14811341D02*
X21186920Y-14773246D01*
X21186920Y-14773246D02*
X21196444Y-14725627D01*
X21196444Y-14725627D02*
X21205968Y-14697055D01*
X21205968Y-14697055D02*
X21215491Y-14678008D01*
X21215491Y-14678008D02*
X21234539Y-14649436D01*
X21234539Y-14649436D02*
X21244063Y-14639912D01*
X21425015Y-14868484D02*
X21310730Y-14868484D01*
X21367872Y-14868484D02*
X21367872Y-14668484D01*
X21367872Y-14668484D02*
X21348825Y-14697055D01*
X21348825Y-14697055D02*
X21329777Y-14716103D01*
X21329777Y-14716103D02*
X21310730Y-14725627D01*
X21501206Y-14687531D02*
X21510730Y-14678008D01*
X21510730Y-14678008D02*
X21529777Y-14668484D01*
X21529777Y-14668484D02*
X21577396Y-14668484D01*
X21577396Y-14668484D02*
X21596444Y-14678008D01*
X21596444Y-14678008D02*
X21605968Y-14687531D01*
X21605968Y-14687531D02*
X21615491Y-14706579D01*
X21615491Y-14706579D02*
X21615491Y-14725627D01*
X21615491Y-14725627D02*
X21605968Y-14754198D01*
X21605968Y-14754198D02*
X21491682Y-14868484D01*
X21491682Y-14868484D02*
X21615491Y-14868484D01*
X21853587Y-14868484D02*
X21853587Y-14668484D01*
X21939301Y-14868484D02*
X21939301Y-14763722D01*
X21939301Y-14763722D02*
X21929777Y-14744674D01*
X21929777Y-14744674D02*
X21910730Y-14735150D01*
X21910730Y-14735150D02*
X21882158Y-14735150D01*
X21882158Y-14735150D02*
X21863111Y-14744674D01*
X21863111Y-14744674D02*
X21853587Y-14754198D01*
X22063111Y-14868484D02*
X22044063Y-14858960D01*
X22044063Y-14858960D02*
X22034539Y-14849436D01*
X22034539Y-14849436D02*
X22025015Y-14830388D01*
X22025015Y-14830388D02*
X22025015Y-14773246D01*
X22025015Y-14773246D02*
X22034539Y-14754198D01*
X22034539Y-14754198D02*
X22044063Y-14744674D01*
X22044063Y-14744674D02*
X22063111Y-14735150D01*
X22063111Y-14735150D02*
X22091682Y-14735150D01*
X22091682Y-14735150D02*
X22110730Y-14744674D01*
X22110730Y-14744674D02*
X22120253Y-14754198D01*
X22120253Y-14754198D02*
X22129777Y-14773246D01*
X22129777Y-14773246D02*
X22129777Y-14830388D01*
X22129777Y-14830388D02*
X22120253Y-14849436D01*
X22120253Y-14849436D02*
X22110730Y-14858960D01*
X22110730Y-14858960D02*
X22091682Y-14868484D01*
X22091682Y-14868484D02*
X22063111Y-14868484D01*
X22244063Y-14868484D02*
X22225015Y-14858960D01*
X22225015Y-14858960D02*
X22215492Y-14839912D01*
X22215492Y-14839912D02*
X22215492Y-14668484D01*
X22396444Y-14858960D02*
X22377396Y-14868484D01*
X22377396Y-14868484D02*
X22339301Y-14868484D01*
X22339301Y-14868484D02*
X22320253Y-14858960D01*
X22320253Y-14858960D02*
X22310730Y-14839912D01*
X22310730Y-14839912D02*
X22310730Y-14763722D01*
X22310730Y-14763722D02*
X22320253Y-14744674D01*
X22320253Y-14744674D02*
X22339301Y-14735150D01*
X22339301Y-14735150D02*
X22377396Y-14735150D01*
X22377396Y-14735150D02*
X22396444Y-14744674D01*
X22396444Y-14744674D02*
X22405968Y-14763722D01*
X22405968Y-14763722D02*
X22405968Y-14782769D01*
X22405968Y-14782769D02*
X22310730Y-14801817D01*
X22482158Y-14858960D02*
X22501206Y-14868484D01*
X22501206Y-14868484D02*
X22539301Y-14868484D01*
X22539301Y-14868484D02*
X22558349Y-14858960D01*
X22558349Y-14858960D02*
X22567872Y-14839912D01*
X22567872Y-14839912D02*
X22567872Y-14830388D01*
X22567872Y-14830388D02*
X22558349Y-14811341D01*
X22558349Y-14811341D02*
X22539301Y-14801817D01*
X22539301Y-14801817D02*
X22510730Y-14801817D01*
X22510730Y-14801817D02*
X22491682Y-14792293D01*
X22491682Y-14792293D02*
X22482158Y-14773246D01*
X22482158Y-14773246D02*
X22482158Y-14763722D01*
X22482158Y-14763722D02*
X22491682Y-14744674D01*
X22491682Y-14744674D02*
X22510730Y-14735150D01*
X22510730Y-14735150D02*
X22539301Y-14735150D01*
X22539301Y-14735150D02*
X22558349Y-14744674D01*
X22634539Y-14944674D02*
X22644063Y-14935150D01*
X22644063Y-14935150D02*
X22663111Y-14906579D01*
X22663111Y-14906579D02*
X22672634Y-14887531D01*
X22672634Y-14887531D02*
X22682158Y-14858960D01*
X22682158Y-14858960D02*
X22691682Y-14811341D01*
X22691682Y-14811341D02*
X22691682Y-14773246D01*
X22691682Y-14773246D02*
X22682158Y-14725627D01*
X22682158Y-14725627D02*
X22672634Y-14697055D01*
X22672634Y-14697055D02*
X22663111Y-14678008D01*
X22663111Y-14678008D02*
X22644063Y-14649436D01*
X22644063Y-14649436D02*
X22634539Y-14639912D01*
D12*
X17604000Y-15106000D02*
X17669000Y-15041000D01*
X17604000Y-14976000D01*
X17539000Y-15041000D01*
X17604000Y-15106000D01*
D10*
X18034539Y-15132484D02*
X17920253Y-15132484D01*
X17977396Y-15132484D02*
X17977396Y-14932484D01*
X17977396Y-14932484D02*
X17958348Y-14961055D01*
X17958348Y-14961055D02*
X17939301Y-14980103D01*
X17939301Y-14980103D02*
X17920253Y-14989627D01*
X18120253Y-15113436D02*
X18129777Y-15122960D01*
X18129777Y-15122960D02*
X18120253Y-15132484D01*
X18120253Y-15132484D02*
X18110729Y-15122960D01*
X18110729Y-15122960D02*
X18120253Y-15113436D01*
X18120253Y-15113436D02*
X18120253Y-15132484D01*
X18196444Y-14932484D02*
X18320253Y-14932484D01*
X18320253Y-14932484D02*
X18253586Y-15008674D01*
X18253586Y-15008674D02*
X18282158Y-15008674D01*
X18282158Y-15008674D02*
X18301205Y-15018198D01*
X18301205Y-15018198D02*
X18310729Y-15027722D01*
X18310729Y-15027722D02*
X18320253Y-15046769D01*
X18320253Y-15046769D02*
X18320253Y-15094388D01*
X18320253Y-15094388D02*
X18310729Y-15113436D01*
X18310729Y-15113436D02*
X18301205Y-15122960D01*
X18301205Y-15122960D02*
X18282158Y-15132484D01*
X18282158Y-15132484D02*
X18225015Y-15132484D01*
X18225015Y-15132484D02*
X18205967Y-15122960D01*
X18205967Y-15122960D02*
X18196444Y-15113436D01*
X18444063Y-14932484D02*
X18463110Y-14932484D01*
X18463110Y-14932484D02*
X18482158Y-14942008D01*
X18482158Y-14942008D02*
X18491682Y-14951531D01*
X18491682Y-14951531D02*
X18501205Y-14970579D01*
X18501205Y-14970579D02*
X18510729Y-15008674D01*
X18510729Y-15008674D02*
X18510729Y-15056293D01*
X18510729Y-15056293D02*
X18501205Y-15094388D01*
X18501205Y-15094388D02*
X18491682Y-15113436D01*
X18491682Y-15113436D02*
X18482158Y-15122960D01*
X18482158Y-15122960D02*
X18463110Y-15132484D01*
X18463110Y-15132484D02*
X18444063Y-15132484D01*
X18444063Y-15132484D02*
X18425015Y-15122960D01*
X18425015Y-15122960D02*
X18415491Y-15113436D01*
X18415491Y-15113436D02*
X18405967Y-15094388D01*
X18405967Y-15094388D02*
X18396444Y-15056293D01*
X18396444Y-15056293D02*
X18396444Y-15008674D01*
X18396444Y-15008674D02*
X18405967Y-14970579D01*
X18405967Y-14970579D02*
X18415491Y-14951531D01*
X18415491Y-14951531D02*
X18425015Y-14942008D01*
X18425015Y-14942008D02*
X18444063Y-14932484D01*
X18634539Y-14932484D02*
X18653586Y-14932484D01*
X18653586Y-14932484D02*
X18672634Y-14942008D01*
X18672634Y-14942008D02*
X18682158Y-14951531D01*
X18682158Y-14951531D02*
X18691682Y-14970579D01*
X18691682Y-14970579D02*
X18701205Y-15008674D01*
X18701205Y-15008674D02*
X18701205Y-15056293D01*
X18701205Y-15056293D02*
X18691682Y-15094388D01*
X18691682Y-15094388D02*
X18682158Y-15113436D01*
X18682158Y-15113436D02*
X18672634Y-15122960D01*
X18672634Y-15122960D02*
X18653586Y-15132484D01*
X18653586Y-15132484D02*
X18634539Y-15132484D01*
X18634539Y-15132484D02*
X18615491Y-15122960D01*
X18615491Y-15122960D02*
X18605967Y-15113436D01*
X18605967Y-15113436D02*
X18596444Y-15094388D01*
X18596444Y-15094388D02*
X18586920Y-15056293D01*
X18586920Y-15056293D02*
X18586920Y-15008674D01*
X18586920Y-15008674D02*
X18596444Y-14970579D01*
X18596444Y-14970579D02*
X18605967Y-14951531D01*
X18605967Y-14951531D02*
X18615491Y-14942008D01*
X18615491Y-14942008D02*
X18634539Y-14932484D01*
X18786920Y-15132484D02*
X18786920Y-14999150D01*
X18786920Y-15018198D02*
X18796444Y-15008674D01*
X18796444Y-15008674D02*
X18815491Y-14999150D01*
X18815491Y-14999150D02*
X18844063Y-14999150D01*
X18844063Y-14999150D02*
X18863110Y-15008674D01*
X18863110Y-15008674D02*
X18872634Y-15027722D01*
X18872634Y-15027722D02*
X18872634Y-15132484D01*
X18872634Y-15027722D02*
X18882158Y-15008674D01*
X18882158Y-15008674D02*
X18901205Y-14999150D01*
X18901205Y-14999150D02*
X18929777Y-14999150D01*
X18929777Y-14999150D02*
X18948825Y-15008674D01*
X18948825Y-15008674D02*
X18958348Y-15027722D01*
X18958348Y-15027722D02*
X18958348Y-15132484D01*
X19053586Y-15132484D02*
X19053586Y-14999150D01*
X19053586Y-15018198D02*
X19063110Y-15008674D01*
X19063110Y-15008674D02*
X19082158Y-14999150D01*
X19082158Y-14999150D02*
X19110729Y-14999150D01*
X19110729Y-14999150D02*
X19129777Y-15008674D01*
X19129777Y-15008674D02*
X19139301Y-15027722D01*
X19139301Y-15027722D02*
X19139301Y-15132484D01*
X19139301Y-15027722D02*
X19148825Y-15008674D01*
X19148825Y-15008674D02*
X19167872Y-14999150D01*
X19167872Y-14999150D02*
X19196444Y-14999150D01*
X19196444Y-14999150D02*
X19215491Y-15008674D01*
X19215491Y-15008674D02*
X19225015Y-15027722D01*
X19225015Y-15027722D02*
X19225015Y-15132484D01*
X19615491Y-14922960D02*
X19444063Y-15180103D01*
X19872634Y-14932484D02*
X19891682Y-14932484D01*
X19891682Y-14932484D02*
X19910729Y-14942008D01*
X19910729Y-14942008D02*
X19920253Y-14951531D01*
X19920253Y-14951531D02*
X19929777Y-14970579D01*
X19929777Y-14970579D02*
X19939301Y-15008674D01*
X19939301Y-15008674D02*
X19939301Y-15056293D01*
X19939301Y-15056293D02*
X19929777Y-15094388D01*
X19929777Y-15094388D02*
X19920253Y-15113436D01*
X19920253Y-15113436D02*
X19910729Y-15122960D01*
X19910729Y-15122960D02*
X19891682Y-15132484D01*
X19891682Y-15132484D02*
X19872634Y-15132484D01*
X19872634Y-15132484D02*
X19853587Y-15122960D01*
X19853587Y-15122960D02*
X19844063Y-15113436D01*
X19844063Y-15113436D02*
X19834539Y-15094388D01*
X19834539Y-15094388D02*
X19825015Y-15056293D01*
X19825015Y-15056293D02*
X19825015Y-15008674D01*
X19825015Y-15008674D02*
X19834539Y-14970579D01*
X19834539Y-14970579D02*
X19844063Y-14951531D01*
X19844063Y-14951531D02*
X19853587Y-14942008D01*
X19853587Y-14942008D02*
X19872634Y-14932484D01*
X20025015Y-15113436D02*
X20034539Y-15122960D01*
X20034539Y-15122960D02*
X20025015Y-15132484D01*
X20025015Y-15132484D02*
X20015491Y-15122960D01*
X20015491Y-15122960D02*
X20025015Y-15113436D01*
X20025015Y-15113436D02*
X20025015Y-15132484D01*
X20158348Y-14932484D02*
X20177396Y-14932484D01*
X20177396Y-14932484D02*
X20196444Y-14942008D01*
X20196444Y-14942008D02*
X20205968Y-14951531D01*
X20205968Y-14951531D02*
X20215491Y-14970579D01*
X20215491Y-14970579D02*
X20225015Y-15008674D01*
X20225015Y-15008674D02*
X20225015Y-15056293D01*
X20225015Y-15056293D02*
X20215491Y-15094388D01*
X20215491Y-15094388D02*
X20205968Y-15113436D01*
X20205968Y-15113436D02*
X20196444Y-15122960D01*
X20196444Y-15122960D02*
X20177396Y-15132484D01*
X20177396Y-15132484D02*
X20158348Y-15132484D01*
X20158348Y-15132484D02*
X20139301Y-15122960D01*
X20139301Y-15122960D02*
X20129777Y-15113436D01*
X20129777Y-15113436D02*
X20120253Y-15094388D01*
X20120253Y-15094388D02*
X20110729Y-15056293D01*
X20110729Y-15056293D02*
X20110729Y-15008674D01*
X20110729Y-15008674D02*
X20120253Y-14970579D01*
X20120253Y-14970579D02*
X20129777Y-14951531D01*
X20129777Y-14951531D02*
X20139301Y-14942008D01*
X20139301Y-14942008D02*
X20158348Y-14932484D01*
X20405968Y-14932484D02*
X20310729Y-14932484D01*
X20310729Y-14932484D02*
X20301206Y-15027722D01*
X20301206Y-15027722D02*
X20310729Y-15018198D01*
X20310729Y-15018198D02*
X20329777Y-15008674D01*
X20329777Y-15008674D02*
X20377396Y-15008674D01*
X20377396Y-15008674D02*
X20396444Y-15018198D01*
X20396444Y-15018198D02*
X20405968Y-15027722D01*
X20405968Y-15027722D02*
X20415491Y-15046769D01*
X20415491Y-15046769D02*
X20415491Y-15094388D01*
X20415491Y-15094388D02*
X20405968Y-15113436D01*
X20405968Y-15113436D02*
X20396444Y-15122960D01*
X20396444Y-15122960D02*
X20377396Y-15132484D01*
X20377396Y-15132484D02*
X20329777Y-15132484D01*
X20329777Y-15132484D02*
X20310729Y-15122960D01*
X20310729Y-15122960D02*
X20301206Y-15113436D01*
X20605968Y-15132484D02*
X20491682Y-15132484D01*
X20548825Y-15132484D02*
X20548825Y-14932484D01*
X20548825Y-14932484D02*
X20529777Y-14961055D01*
X20529777Y-14961055D02*
X20510729Y-14980103D01*
X20510729Y-14980103D02*
X20491682Y-14989627D01*
X20682158Y-14951531D02*
X20691682Y-14942008D01*
X20691682Y-14942008D02*
X20710729Y-14932484D01*
X20710729Y-14932484D02*
X20758349Y-14932484D01*
X20758349Y-14932484D02*
X20777396Y-14942008D01*
X20777396Y-14942008D02*
X20786920Y-14951531D01*
X20786920Y-14951531D02*
X20796444Y-14970579D01*
X20796444Y-14970579D02*
X20796444Y-14989627D01*
X20796444Y-14989627D02*
X20786920Y-15018198D01*
X20786920Y-15018198D02*
X20672634Y-15132484D01*
X20672634Y-15132484D02*
X20796444Y-15132484D01*
X20872634Y-14932484D02*
X20872634Y-14970579D01*
X20948825Y-14932484D02*
X20948825Y-14970579D01*
X21244063Y-15208674D02*
X21234539Y-15199150D01*
X21234539Y-15199150D02*
X21215491Y-15170579D01*
X21215491Y-15170579D02*
X21205968Y-15151531D01*
X21205968Y-15151531D02*
X21196444Y-15122960D01*
X21196444Y-15122960D02*
X21186920Y-15075341D01*
X21186920Y-15075341D02*
X21186920Y-15037246D01*
X21186920Y-15037246D02*
X21196444Y-14989627D01*
X21196444Y-14989627D02*
X21205968Y-14961055D01*
X21205968Y-14961055D02*
X21215491Y-14942008D01*
X21215491Y-14942008D02*
X21234539Y-14913436D01*
X21234539Y-14913436D02*
X21244063Y-14903912D01*
X21310730Y-14951531D02*
X21320253Y-14942008D01*
X21320253Y-14942008D02*
X21339301Y-14932484D01*
X21339301Y-14932484D02*
X21386920Y-14932484D01*
X21386920Y-14932484D02*
X21405968Y-14942008D01*
X21405968Y-14942008D02*
X21415491Y-14951531D01*
X21415491Y-14951531D02*
X21425015Y-14970579D01*
X21425015Y-14970579D02*
X21425015Y-14989627D01*
X21425015Y-14989627D02*
X21415491Y-15018198D01*
X21415491Y-15018198D02*
X21301206Y-15132484D01*
X21301206Y-15132484D02*
X21425015Y-15132484D01*
X21539301Y-15018198D02*
X21520253Y-15008674D01*
X21520253Y-15008674D02*
X21510730Y-14999150D01*
X21510730Y-14999150D02*
X21501206Y-14980103D01*
X21501206Y-14980103D02*
X21501206Y-14970579D01*
X21501206Y-14970579D02*
X21510730Y-14951531D01*
X21510730Y-14951531D02*
X21520253Y-14942008D01*
X21520253Y-14942008D02*
X21539301Y-14932484D01*
X21539301Y-14932484D02*
X21577396Y-14932484D01*
X21577396Y-14932484D02*
X21596444Y-14942008D01*
X21596444Y-14942008D02*
X21605968Y-14951531D01*
X21605968Y-14951531D02*
X21615491Y-14970579D01*
X21615491Y-14970579D02*
X21615491Y-14980103D01*
X21615491Y-14980103D02*
X21605968Y-14999150D01*
X21605968Y-14999150D02*
X21596444Y-15008674D01*
X21596444Y-15008674D02*
X21577396Y-15018198D01*
X21577396Y-15018198D02*
X21539301Y-15018198D01*
X21539301Y-15018198D02*
X21520253Y-15027722D01*
X21520253Y-15027722D02*
X21510730Y-15037246D01*
X21510730Y-15037246D02*
X21501206Y-15056293D01*
X21501206Y-15056293D02*
X21501206Y-15094388D01*
X21501206Y-15094388D02*
X21510730Y-15113436D01*
X21510730Y-15113436D02*
X21520253Y-15122960D01*
X21520253Y-15122960D02*
X21539301Y-15132484D01*
X21539301Y-15132484D02*
X21577396Y-15132484D01*
X21577396Y-15132484D02*
X21596444Y-15122960D01*
X21596444Y-15122960D02*
X21605968Y-15113436D01*
X21605968Y-15113436D02*
X21615491Y-15094388D01*
X21615491Y-15094388D02*
X21615491Y-15056293D01*
X21615491Y-15056293D02*
X21605968Y-15037246D01*
X21605968Y-15037246D02*
X21596444Y-15027722D01*
X21596444Y-15027722D02*
X21577396Y-15018198D01*
X21853587Y-15132484D02*
X21853587Y-14932484D01*
X21939301Y-15132484D02*
X21939301Y-15027722D01*
X21939301Y-15027722D02*
X21929777Y-15008674D01*
X21929777Y-15008674D02*
X21910730Y-14999150D01*
X21910730Y-14999150D02*
X21882158Y-14999150D01*
X21882158Y-14999150D02*
X21863111Y-15008674D01*
X21863111Y-15008674D02*
X21853587Y-15018198D01*
X22063111Y-15132484D02*
X22044063Y-15122960D01*
X22044063Y-15122960D02*
X22034539Y-15113436D01*
X22034539Y-15113436D02*
X22025015Y-15094388D01*
X22025015Y-15094388D02*
X22025015Y-15037246D01*
X22025015Y-15037246D02*
X22034539Y-15018198D01*
X22034539Y-15018198D02*
X22044063Y-15008674D01*
X22044063Y-15008674D02*
X22063111Y-14999150D01*
X22063111Y-14999150D02*
X22091682Y-14999150D01*
X22091682Y-14999150D02*
X22110730Y-15008674D01*
X22110730Y-15008674D02*
X22120253Y-15018198D01*
X22120253Y-15018198D02*
X22129777Y-15037246D01*
X22129777Y-15037246D02*
X22129777Y-15094388D01*
X22129777Y-15094388D02*
X22120253Y-15113436D01*
X22120253Y-15113436D02*
X22110730Y-15122960D01*
X22110730Y-15122960D02*
X22091682Y-15132484D01*
X22091682Y-15132484D02*
X22063111Y-15132484D01*
X22244063Y-15132484D02*
X22225015Y-15122960D01*
X22225015Y-15122960D02*
X22215492Y-15103912D01*
X22215492Y-15103912D02*
X22215492Y-14932484D01*
X22396444Y-15122960D02*
X22377396Y-15132484D01*
X22377396Y-15132484D02*
X22339301Y-15132484D01*
X22339301Y-15132484D02*
X22320253Y-15122960D01*
X22320253Y-15122960D02*
X22310730Y-15103912D01*
X22310730Y-15103912D02*
X22310730Y-15027722D01*
X22310730Y-15027722D02*
X22320253Y-15008674D01*
X22320253Y-15008674D02*
X22339301Y-14999150D01*
X22339301Y-14999150D02*
X22377396Y-14999150D01*
X22377396Y-14999150D02*
X22396444Y-15008674D01*
X22396444Y-15008674D02*
X22405968Y-15027722D01*
X22405968Y-15027722D02*
X22405968Y-15046769D01*
X22405968Y-15046769D02*
X22310730Y-15065817D01*
X22482158Y-15122960D02*
X22501206Y-15132484D01*
X22501206Y-15132484D02*
X22539301Y-15132484D01*
X22539301Y-15132484D02*
X22558349Y-15122960D01*
X22558349Y-15122960D02*
X22567872Y-15103912D01*
X22567872Y-15103912D02*
X22567872Y-15094388D01*
X22567872Y-15094388D02*
X22558349Y-15075341D01*
X22558349Y-15075341D02*
X22539301Y-15065817D01*
X22539301Y-15065817D02*
X22510730Y-15065817D01*
X22510730Y-15065817D02*
X22491682Y-15056293D01*
X22491682Y-15056293D02*
X22482158Y-15037246D01*
X22482158Y-15037246D02*
X22482158Y-15027722D01*
X22482158Y-15027722D02*
X22491682Y-15008674D01*
X22491682Y-15008674D02*
X22510730Y-14999150D01*
X22510730Y-14999150D02*
X22539301Y-14999150D01*
X22539301Y-14999150D02*
X22558349Y-15008674D01*
X22634539Y-15208674D02*
X22644063Y-15199150D01*
X22644063Y-15199150D02*
X22663111Y-15170579D01*
X22663111Y-15170579D02*
X22672634Y-15151531D01*
X22672634Y-15151531D02*
X22682158Y-15122960D01*
X22682158Y-15122960D02*
X22691682Y-15075341D01*
X22691682Y-15075341D02*
X22691682Y-15037246D01*
X22691682Y-15037246D02*
X22682158Y-14989627D01*
X22682158Y-14989627D02*
X22672634Y-14961055D01*
X22672634Y-14961055D02*
X22663111Y-14942008D01*
X22663111Y-14942008D02*
X22644063Y-14913436D01*
X22644063Y-14913436D02*
X22634539Y-14903912D01*
M02*
